<?xml version="1.0" standalone="no"?>
<!DOCTYPE svg PUBLIC "-//W3C//DTD SVG 1.1//EN" "http://www.w3.org/Graphics/SVG/1.1/DTD/svg11.dtd" >
<svg xmlns="http://www.w3.org/2000/svg">
<metadata></metadata>
<defs>
<font id="sabon_lt_stditalic" horiz-adv-x="1138" >
<font-face units-per-em="2048" ascent="1565" descent="-483" />
<missing-glyph horiz-adv-x="569" />
<glyph unicode="&#xfb01;" d="M4 -457l266 1278h-209l25 84h199q39 195 112 328t213 235q137 97 285 97q52 0 99 -13t83.5 -49t36.5 -90q0 -41 -26.5 -70.5t-65.5 -29.5q-32 0 -45.5 7t-13.5 34q1 65 -42.5 96t-105.5 31q-126 0 -219 -133q-72 -106 -102 -252l-39 -191h569l18 -18l-190 -633 q-21 -72 -21 -90q0 -31 27 -31q19 0 72.5 51t83.5 86l33 -26q-201 -275 -326 -275q-78 0 -78 86q0 33 21 101l188 665h-416l-289 -1220l-127 -68z" />
<glyph unicode="&#xfb02;" d="M4 -457l266 1278h-209l25 84h199l20 92q28 131 118.5 262t216 218.5t241.5 87.5q45 0 118 -27l19 -6l92 29l25 -19l-318 -1327q-8 -28 -8 -47q0 -35 35 -35q40 0 192 143l29 -28q-37 -44 -54.5 -63.5t-65.5 -68.5t-81 -75t-77 -49t-78 -23q-39 0 -63.5 25.5t-24.5 64.5 q0 30 34 183l279 1153q-69 59 -164 59q-49 0 -89.5 -19t-70.5 -56t-52 -78t-39 -100.5t-27.5 -106t-22.5 -111.5l-14 -78h225l-25 -84h-219l-289 -1220l-127 -68z" />
<glyph horiz-adv-x="2048" />
<glyph horiz-adv-x="2048" />
<glyph unicode="&#xd;" horiz-adv-x="2048" />
<glyph unicode=" "  horiz-adv-x="569" />
<glyph unicode="&#x09;" horiz-adv-x="569" />
<glyph unicode="&#xa0;" horiz-adv-x="569" />
<glyph unicode="!" horiz-adv-x="681" d="M113 102q0 54 40.5 96t94.5 42t94.5 -41.5t40.5 -96.5t-39.5 -94t-95.5 -39q-55 0 -95 39t-40 94zM272 385l78 625q4 40 9.5 76.5t19.5 93t32 96t48.5 69t68.5 29.5q45 0 67.5 -31t22.5 -77q0 -88 -67 -267l-238 -614h-41z" />
<glyph unicode="&#x22;" d="M467 1341q0 89 76 89q75 0 75 -89q0 -18 -4 -34l-34 -308q-6 -47 -37 -47t-37 47l-35 308q-4 16 -4 34zM727 1341q0 89 76 89t76 -89q0 -14 -5 -34l-34 -308q-6 -47 -37 -47t-37 47l-35 308q-4 16 -4 34z" />
<glyph unicode="#" d="M109 446l16 111h213l43 299h-215l16 111h213l64 446h125l-64 -446h266l64 446h125l-64 -446h213l-14 -111h-213l-43 -299h213l-14 -111h-213l-64 -446h-127l64 446h-264l-64 -446h-127l64 446h-213zM463 557h266l43 299h-266z" />
<glyph unicode="$" d="M92 -14l53 430h41q3 -54 7.5 -91.5t14 -84t27.5 -79t44.5 -63t67.5 -49t95 -26.5l109 620q-49 50 -75.5 78.5t-65.5 77.5t-59.5 87t-36 89t-15.5 102q0 178 111 283q36 34 74.5 56t73.5 30.5t58 11.5t50 2.5t28 -0.5l27 154h61l-26 -154q66 -7 123 -26q74 -23 84 -23 q13 0 32.5 10t22.5 11h20l-67 -363h-41q0 9 0.5 33t0.5 37.5t-1.5 38.5t-4.5 40.5t-9.5 38t-15.5 37.5t-23.5 32.5t-33 29t-44 21t-56.5 14.5l-96 -543q14 -15 65 -69.5t71.5 -78.5t55.5 -67t54.5 -79.5t30.5 -72.5q16 -49 16 -112q0 -90 -37 -166t-99 -126.5t-142.5 -79 t-167.5 -28.5l-27 -151h-64l29 157q-79 10 -225 68l-90 -57h-25zM451 1180q0 -118 145 -277l88 492q-105 0 -169 -56t-64 -159zM504 23q109 9 184.5 81t75.5 181q0 76 -42 147t-120 154z" />
<glyph unicode="%" horiz-adv-x="2048" d="M197 1067q0 153 118.5 265t272.5 112q134 0 211.5 -87.5t77.5 -223.5q0 -101 -54 -188.5t-143 -138t-188 -50.5q-128 0 -211.5 91t-83.5 220zM348 1012q0 -50 11.5 -93.5t45 -77.5t84.5 -32q57 -1 104.5 37t75 97t42 121t14.5 114q0 41 -5.5 74.5t-19 68t-43 53 t-71.5 17.5q-59 1 -107 -38.5t-75 -100.5t-41.5 -123.5t-14.5 -116.5zM494 -47l917 1507h96l-915 -1507h-98zM1126 281q0 153 119 264.5t273 111.5q134 0 211 -87.5t77 -223.5q0 -101 -54 -188.5t-143 -138t-188 -50.5q-128 0 -211.5 91.5t-83.5 220.5zM1278 225 q0 -50 11.5 -93.5t45 -77t84.5 -31.5q57 -1 104.5 37t75 97t42 120.5t14.5 113.5q0 41 -5.5 74.5t-19 68t-43 53t-71.5 17.5q-59 1 -107 -38.5t-75 -100.5t-41.5 -123.5t-14.5 -116.5z" />
<glyph unicode="&#x26;" horiz-adv-x="1933" d="M190 494q0 96 46.5 204.5t120 197.5t173.5 147.5t199 58.5q84 0 131 -47q14 18 79.5 81t110 119.5t44.5 96.5q0 16 -9.5 51t-9.5 43q0 34 24 54t58 20q33 0 52.5 -24.5t19.5 -68.5q0 -88 -189 -270l-424 -403l-79 -80l-99 -117q-27 -33 -40 -52.5t-24.5 -50t-11.5 -63.5 q0 -62 76 -147q50 -58 135.5 -90.5t167.5 -32.5q156 0 290 69t216 164q141 157 156 480q-8 30 -70.5 58t-107.5 28q-56 0 -100 -39t-44 -93q0 -39 14 -59.5t34 -26.5t40 -11t34 -21t14 -47q0 -38 -31.5 -57t-71.5 -19q-17 0 -37.5 8t-42 24.5t-35.5 48.5t-14 74 q0 79 57.5 156.5t142 124.5t161.5 47q61 0 112.5 -26.5t86.5 -64t66.5 -75t65.5 -64t70 -26.5q31 0 50.5 23.5t19.5 54.5q0 16 -29 54.5t-29 70.5q0 26 20.5 43.5t47.5 17.5q40 0 63 -32t23 -74q0 -63 -43 -123t-107.5 -95.5t-126.5 -35.5q-33 0 -70 20.5t-58.5 41 t-51.5 53.5q-4 -125 -24.5 -231.5t-75.5 -203.5q-220 -389 -651 -389q-222 0 -368.5 145.5t-146.5 379.5zM311 575q0 -54 8 -81q75 103 177 208l192 203q10 10 10 23q0 24 -28 43.5t-60 19.5q-82 0 -152.5 -65.5t-108.5 -161t-38 -189.5z" />
<glyph unicode="'" horiz-adv-x="569" d="M315 1341q0 89 76 89t76 -89q0 -18 -4 -34l-35 -308q-6 -47 -37 -47t-37 47l-35 308q-4 16 -4 34z" />
<glyph unicode="(" horiz-adv-x="681" d="M178 193q0 146 29.5 289t75.5 262.5t121 250t147 233.5t172 232l43 -22q-92 -150 -151.5 -255.5t-122.5 -240t-98 -251.5t-58 -259.5t-23 -294.5q0 -241 70 -508l-51 -24q-154 305 -154 588z" />
<glyph unicode=")" horiz-adv-x="681" d="M-63 -373q92 149 151.5 255t122 240t98 251.5t58 260t22.5 294.5q0 241 -70 508l52 24q153 -303 153 -588q0 -146 -29.5 -289t-75.5 -262.5t-120.5 -250t-146.5 -233.5t-172 -232z" />
<glyph unicode="*" d="M369 967q0 17 16.5 33t39 26.5t56 21t57 15.5t52.5 11t33 7q0 -6 7 -17.5t13 -14.5q-5 -7 -27 -35t-39 -48.5t-40.5 -44.5t-46 -37.5t-41.5 -13.5q-35 0 -57.5 30.5t-22.5 66.5zM391 1260q0 30 21 61q52 55 102 16q17 -13 32 -29.5t30.5 -39t25 -37t27 -44t24.5 -40.5 q-6 0 -14 -11t-10 -18q-19 7 -56.5 20t-59.5 21t-50 23t-47 32q-21 16 -25 46zM666 825q0 67 4 207q4 -2 10 -2q10 0 25 10q124 -169 124 -215q0 -32 -29.5 -53.5t-62.5 -21.5q-36 0 -53.5 21t-17.5 54zM688 1153q6 89 6 178q0 44 20 71.5t56 27.5q32 2 62 -19t30 -53 q0 -14 -8.5 -34.5t-19.5 -38.5t-29 -43t-29.5 -39t-29.5 -36t-21 -26q-4 4 -17 8t-20 4zM737 1065q4 6 4 18q0 7 -4 19q13 4 44.5 16t48 17.5t42.5 13t48 11t43 3.5q29 0 48 -22.5t19 -57.5q0 -77 -67 -77q-60 0 -226 59z" />
<glyph unicode="+" d="M117 385v135h385v385h135v-385h385v-135h-385v-385h-135v385h-385z" />
<glyph unicode="," horiz-adv-x="569" d="M-14 -246q42 6 76 13t73 23t64.5 37t43 55.5t17.5 78.5q0 28 -14 37q-11 6 -51 17t-64 36q-25 28 -25 70q0 65 40.5 92t93.5 27q75 0 115 -58t40 -137q0 -99 -59.5 -178t-149.5 -118t-186 -36z" />
<glyph unicode="-" horiz-adv-x="681" d="M80 422l37 135h483l-33 -135h-487z" />
<glyph unicode="." horiz-adv-x="569" d="M102 102q0 54 41 96t95 42t94.5 -41.5t40.5 -96.5t-39.5 -94t-95.5 -39q-55 0 -95.5 39t-40.5 94z" />
<glyph unicode="/" horiz-adv-x="569" d="M-33 -31l608 1491h136l-609 -1491h-135z" />
<glyph unicode="0" d="M121 537q0 79 18.5 176t53 198.5t87 196.5t116 170t145.5 120.5t170 45.5q98 0 171.5 -48t116 -132.5t62.5 -188t20 -225.5q0 -78 -17 -171.5t-49.5 -192.5t-84.5 -191t-116 -165t-150.5 -117t-182.5 -44q-81 0 -145 38t-103.5 97t-65.5 136.5t-36 150.5t-10 146z M285 408q0 -38 1.5 -69.5t6.5 -73t14 -73.5t25 -65t38 -54.5t55.5 -35.5t74.5 -14q60 0 115 39.5t96 104.5t76 149t59 172t40.5 173.5t24 154t7.5 114.5q0 49 -0.5 79t-4.5 82.5t-11.5 86.5t-23 75.5t-37 66t-55 41.5t-75.5 17q-76 0 -142 -56t-110.5 -147t-79.5 -198.5 t-54.5 -219t-29.5 -200.5t-10 -149z" />
<glyph unicode="1" d="M162 0l10 51h66q41 0 59 0.5t43 4.5t35.5 12.5t21 24.5t15.5 40l204 1127l-327 -166l-27 49l545 301l20 -10l-215 -1217q-12 -73 -12 -104q0 -21 9.5 -33.5t31.5 -18.5t46.5 -8t66.5 -2h84l-11 -51q-55 0 -164 2t-165 2q-110 0 -336 -4z" />
<glyph unicode="2" d="M41 0l6 72l289 272q76 73 143 149.5t136.5 173.5t111 200t41.5 194q0 111 -57.5 185.5t-165.5 74.5q-20 0 -40 -3t-35 -5.5t-34 -11.5t-30 -13t-30.5 -18.5t-26.5 -19t-28 -23t-25.5 -22.5t-28 -26.5t-27.5 -25.5l-33 47q55 57 93 92.5t93 74.5t114 58t124 19 q146 0 235.5 -86t89.5 -234q0 -91 -37.5 -186.5t-92 -174.5t-137 -169t-152 -154t-158 -146t-135.5 -130h635l65 119l45 -13l-80 -270q-270 4 -407 4q-149 0 -461 -4z" />
<glyph unicode="3" d="M35 158l86 26q35 -84 94.5 -122.5t149.5 -38.5q105 0 188 59.5t125.5 150.5t42.5 191q0 128 -67.5 210.5t-190.5 82.5q-71 0 -86 -2l10 55q89 6 176.5 45t151 114t63.5 167q0 113 -54.5 182.5t-162.5 69.5q-26 0 -51 -5.5t-43 -12t-43 -21.5t-37 -23.5t-41 -30t-39 -28.5 l-33 37q59 49 91.5 73t82.5 53.5t100.5 41.5t110.5 12q123 0 209 -72.5t86 -195.5q0 -65 -20.5 -121t-52 -96t-80.5 -76t-95.5 -60t-107.5 -49v-4q144 -20 227.5 -101.5t83.5 -224.5q0 -125 -73 -234t-199.5 -175t-274.5 -66q-103 0 -164.5 15.5t-140.5 68.5z" />
<glyph unicode="4" d="M51 473l6 72l838 899h92l-156 -836h226l-27 -135h-223l-86 -473h-168l88 473h-590zM213 608h453l110 606h-4z" />
<glyph unicode="5" d="M66 154l88 30q51 -87 108.5 -124t153.5 -37q90 0 159 54.5t101.5 134t32.5 167.5q0 166 -100 294.5t-259 215.5l213 524h516l-57 -164h-453l-88 -219q78 -50 142.5 -106t123 -126.5t92 -155.5t33.5 -175q0 -136 -60.5 -249.5t-172.5 -181t-252 -67.5q-118 0 -192 31 t-109 66z" />
<glyph unicode="6" d="M139 420q0 141 54 281t147 255.5t212.5 210.5t255.5 158.5t271 87.5l17 -47q-205 -43 -369.5 -172.5t-267.5 -316.5q-144 -270 -144 -515q0 -45 6 -87.5t22.5 -89.5t42.5 -82t70 -57.5t101 -22.5q73 0 129 36t88 94t48 123t16 132q0 126 -63 206t-185 80q-95 0 -178 -65 l22 78q57 35 132.5 59.5t142.5 24.5q124 0 214.5 -97.5t90.5 -247.5q0 -126 -62.5 -236t-171 -175.5t-235.5 -65.5q-99 0 -178.5 38t-128 102t-74 143.5t-25.5 167.5z" />
<glyph unicode="7" d="M172 1161l70 252h923v-16l-872 -1442l-82 45l764 1249h-703l-49 -88h-51z" />
<glyph unicode="8" d="M135 268q0 67 22 125t54.5 99t85 79.5t99 63.5t110.5 53q-207 181 -207 381q0 99 47 184t137.5 138t204.5 53q88 0 167 -33.5t132 -103t53 -160.5q0 -74 -27 -138t-77.5 -114t-103.5 -86.5t-123 -71.5q47 -44 70 -66.5t56 -63t48 -73.5t27 -80.5t12 -101.5 q0 -178 -125 -280.5t-312 -102.5q-86 0 -165 35t-132 105t-53 159zM270 266q0 -102 64 -166.5t168 -64.5q115 0 185.5 70t70.5 192q0 49 -18 97t-55.5 96.5t-66.5 80t-79 80.5q-128 -74 -198.5 -164.5t-70.5 -220.5zM451 1135q0 -40 15.5 -84.5t35 -78.5t55.5 -79t57 -67.5 t60 -63.5q109 75 170 164t61 207q0 112 -57.5 178.5t-167.5 66.5q-95 0 -162 -73t-67 -170z" />
<glyph unicode="9" d="M88 47q205 43 369.5 173t267.5 317q143 269 143 514q0 57 -10.5 111t-35.5 108.5t-75 87.5t-120 33q-73 0 -129 -36t-88 -94t-48 -123t-16 -132q0 -126 63 -206.5t185 -80.5q95 0 178 65l-22 -77q-57 -35 -132.5 -59.5t-142.5 -24.5q-124 0 -214.5 97t-90.5 247 q0 126 62.5 236t171 175.5t235.5 65.5q99 0 178 -38t127.5 -102t74 -143.5t25.5 -167.5q0 -141 -54 -281t-147 -255.5t-212.5 -210.5t-255.5 -158.5t-271 -87.5z" />
<glyph unicode=":" horiz-adv-x="569" d="M102 102q0 54 41 96t95 42t94.5 -41.5t40.5 -96.5t-39.5 -94t-95.5 -39q-55 0 -95.5 39t-40.5 94zM213 705q0 54 40.5 95.5t94.5 41.5t94.5 -41t40.5 -96t-39.5 -94.5t-95.5 -39.5q-54 0 -94.5 39.5t-40.5 94.5z" />
<glyph unicode=";" horiz-adv-x="569" d="M-14 -246q42 6 76 13t73 23t64.5 37t43 55.5t17.5 78.5q0 28 -14 37q-11 6 -51 17t-64 36q-25 28 -25 70q0 65 40.5 92t93.5 27q75 0 115 -58t40 -137q0 -99 -59.5 -178t-149.5 -118t-186 -36zM213 705q0 54 40.5 95.5t94.5 41.5t94.5 -41t40.5 -96t-39.5 -94.5 t-95.5 -39.5q-54 0 -94.5 39.5t-40.5 94.5z" />
<glyph unicode="&#x3c;" d="M117 385v135l905 395v-145l-750 -317l750 -318v-145z" />
<glyph unicode="=" d="M117 180v135h905v-135h-905zM117 590v135h905v-135h-905z" />
<glyph unicode="&#x3e;" d="M117 -10v145l749 318l-749 317v145l905 -395v-135z" />
<glyph unicode="?" horiz-adv-x="909" d="M182 102q0 54 40.5 96t94.5 42t95 -41.5t41 -96.5t-40 -94t-96 -39q-55 0 -95 39t-40 94zM213 696q0 75 30 127t77.5 79t105 45.5t115.5 34t105.5 35.5t77.5 59.5t30 97.5q0 67 -37 104t-105 37q-39 0 -93 -15.5t-77 -15.5q-29 0 -46 19t-17 47q0 80 127 80 q130 0 231 -92.5t101 -221.5q0 -75 -25.5 -131t-64 -87t-91.5 -55.5t-101 -36.5t-101 -28t-82 -33q-34 -20 -55 -56t-21 -75q0 -62 52 -94.5t100 -32.5q19 0 40 5.5t29 5.5q45 0 45 -52q0 -35 -17 -58t-50 -23q-71 0 -156 75q-42 37 -84.5 120.5t-42.5 135.5z" />
<glyph unicode="@" horiz-adv-x="1638" d="M115 678q0 171 63 318.5t170 248.5t250 158t301 57q196 0 358 -83t255.5 -230.5t93.5 -327.5q0 -67 -16.5 -138.5t-51 -139.5t-81 -121.5t-112 -86t-139.5 -32.5q-50 0 -90 20t-61 47.5t-31.5 51t-9.5 35.5h-4q-31 -46 -99 -96.5t-149 -53.5q-22 -1 -44.5 3t-53.5 20 t-53.5 43.5t-39 79.5t-16.5 122q0 40 11.5 92.5t34 111.5t58.5 115.5t81 102t107.5 73.5t131.5 28q15 0 28 -2t23 -4t21 -8.5t17 -9.5t15 -13t12 -12.5t11 -16t9 -15t9 -17.5l9 -15l20 84h150l-134 -528q-12 -47 -12 -76q0 -96 82 -96q83 0 150.5 74.5t101 176.5t33.5 201 q0 76 -26.5 156t-80.5 155t-127 134t-175 95t-216 36q-124 0 -233.5 -48.5t-193.5 -139.5t-132.5 -233t-48.5 -317q0 -114 46.5 -223t127 -193.5t200 -136t255.5 -51.5q89 0 171 17t128.5 34.5t126.5 53.5l26 -66q-128 -59 -232.5 -91t-217.5 -32q-161 0 -298.5 46.5 t-229 121t-156.5 169t-94 189t-29 183.5zM707 578q0 -93 37.5 -135t99.5 -42q28 0 60.5 17.5t66 55.5t60.5 90.5t44 129.5t17 166q0 139 -88 139q-32 0 -71 -18t-78.5 -54.5t-72.5 -85t-54 -118t-21 -145.5z" />
<glyph unicode="A" horiz-adv-x="1478" d="M4 0l10 53h4q64 0 104 34q42 35 77 103l704 1248q47 11 74 22l12 -8l225 -1272q9 -68 44 -100q31 -28 89 -27h15l-10 -53q-43 0 -129 2t-129 2q-74 0 -222 -4l11 53q23 -3 49.5 -0.5t49 8t35.5 23.5t9 47l-61 406h-480l-168 -349q-22 -49 -22 -73q0 -62 88 -62h61 l-10 -53q-40 0 -120.5 2t-120.5 2q-63 0 -189 -4zM530 621h424l-90 610h-4z" />
<glyph unicode="B" horiz-adv-x="1366" d="M47 0l10 53h33q29 0 50.5 2.5t37 6t26.5 15t17.5 19t12.5 29t8.5 34t7.5 44.5q1 7 2 10l192 1073q5 28 -7.5 47.5t-37 28t-47 11.5t-47.5 3h-43l8 54q171 -7 295 -7q33 0 100 3.5t101 3.5q65 0 125 -7.5t123 -28.5t108.5 -54t75 -88.5t29.5 -127.5q0 -65 -23 -121.5 t-62 -97.5t-90.5 -72t-109 -48t-117.5 -23v-4q363 -36 363 -328q0 -86 -32 -158t-86 -121.5t-127.5 -84t-155 -50.5t-169.5 -16q-48 0 -143 2t-143 2q-97 0 -285 -4zM424 166q-1 -8 -1 -16q1 -14 5 -26q8 -18 27 -29t36 -17.5t47.5 -8.5t44 -2.5t40.5 -0.5q166 0 265 109 t99 276q0 67 -19.5 116t-50.5 77.5t-79.5 45t-96 22t-110.5 5.5q-53 0 -109 -6zM535 788q89 -6 149 -6q65 0 125 21.5t109 63t78.5 110t29.5 153.5q0 65 -25.5 112.5t-70.5 73t-96 37t-111 11.5q-28 0 -78 -4z" />
<glyph unicode="C" horiz-adv-x="1478" d="M180 657q0 163 65 312t174 256.5t257.5 171t310.5 63.5q104 0 182.5 -15t112.5 -33t64.5 -33t50.5 -15q9 0 19 4.5t15.5 9.5t15.5 14.5t13 12.5l25 -14l-68 -361l-41 12q2 23 2 44q0 50 -12 94q-16 62 -70 116q-99 99 -268 99q-121 0 -226 -44.5t-178.5 -118 t-126.5 -169.5t-78.5 -199.5t-25.5 -206.5q0 -135 29.5 -247.5t86.5 -196.5t148 -131t207 -47q185 0 299 94t193 279l45 -11l-82 -348q-25 17 -55 17q-13 0 -35.5 -8t-55.5 -22t-49 -20q-72 -27 -127 -37t-135 -10q-196 0 -350.5 84.5t-243 242t-88.5 361.5z" />
<glyph unicode="D" horiz-adv-x="1705" d="M47 0l10 53h45q74 3 103.5 30t44.5 114l172 931q20 92 20 162q0 46 -32.5 62.5t-110.5 23.5h-39l10 54q144 -7 244 -7q43 0 135 3.5t170 3.5q106 0 193 -13.5t150 -38.5t102 -48t82 -56q108 -82 169.5 -206.5t61.5 -285.5q0 -235 -113 -414.5t-303.5 -273.5t-425.5 -94 q-45 0 -136 1t-136 1q-69 0 -208 -1t-208 -1zM432 193q-3 -14 -3 -26q-1 -13 3 -25q6 -22 27 -35.5t43.5 -22t59 -12.5t64.5 -5t70 -1q156 0 285.5 59.5t215 161t132.5 236.5t47 288q0 79 -19 151t-48 124t-68 95t-75 69.5t-72 43.5q-84 40 -142.5 55t-158.5 15 q-51 0 -144 -6z" />
<glyph unicode="E" horiz-adv-x="1366" d="M39 0l10 53h29h10q40 -1 68 7q30 8 47 29.5t24.5 42.5t14.5 58l192 1055q4 18 4 51q0 30 -32.5 55t-100.5 25h-41l10 54q62 -1 233.5 -5t264.5 -4t263.5 4t232.5 5l-23 -285h-41v49q0 44 -11 74t-32 49.5t-61 29.5t-88 13.5t-123 3.5h-250l-107 -582h267h15q71 0 117 17 q50 19 66 75l27 99h35l-84 -465h-33l6 80q1 8 1 15q0 53 -38 73q-43 22 -147 22h-244l-80 -456q-10 -68 -10 -78q0 -46 25.5 -72t91.5 -26h321q59 0 101 5t76 21.5t55.5 33t45 54.5t38.5 70t41 94h47l-92 -344q-29 0 -292 2t-399 2q-150 0 -450 -4z" />
<glyph unicode="F" d="M39 0l10 53h25h15q75 0 100 18q27 20 49 103l190 1024q8 41 8 80q0 63 -37 82q-32 16 -98 16h-22h-19l10 54q209 -9 559 -9q55 0 165 4.5t165 4.5l-20 -281h-43q-1 10 -3 45.5t-4.5 53.5t-12.5 43t-27 40q-14 12 -40 20t-71.5 10.5t-73.5 2.5h-37h-55h-82h-53l-105 -582 h267q42 1 69.5 3.5t50.5 11t36 18t25.5 30.5t20 42t19.5 59l10 33h43l-87 -496h-40q1 11 4.5 33t5.5 40t2 34q0 104 -137 108h-307l-88 -520q-4 -36 -4 -47q0 -51 30 -65q29 -14 118 -13h12h34l-10 -53h-70h-115q-101 2 -128 2q-41 0 -138 -1t-116 -1z" />
<glyph unicode="G" horiz-adv-x="1705" d="M180 645q0 170 70 322.5t187.5 260t275 170t327.5 62.5q93 0 197 -19t184 -50q64 -23 80 -23q12 0 26 8t15 8l33 -8l-55 -346h-41q0 163 -76 248q-53 58 -145.5 87.5t-182.5 29.5q-136 0 -263 -64t-218.5 -167t-146 -238.5t-54.5 -274.5q0 -90 20.5 -178t62 -167 t99 -139.5t137 -96t169.5 -35.5q62 0 109.5 7.5t93 27.5t75 60t41.5 99l33 207q5 28 -3.5 48t-22.5 30t-40 15.5t-45 6.5t-49 1h-43l10 53q169 -6 340 -6q36 0 107.5 3t107.5 3l-10 -51h-26q-41 0 -68.5 -11.5t-44 -37.5t-24.5 -51.5t-17 -69.5l-47 -289 q-273 -111 -490 -111q-147 0 -274 48t-218.5 134.5t-143.5 214t-52 279.5z" />
<glyph unicode="H" horiz-adv-x="1705" d="M39 0l10 53h39q31 -1 52 2t37 13.5t25 20t17.5 34t12.5 43.5t12 59l184 1004q7 35 7 60.5t-6.5 41t-14.5 25.5t-23.5 14t-27 5t-31.5 1h-70l10 54q171 -7 289 -7q42 0 125.5 3.5t126.5 3.5l-10 -54h-37q-84 0 -114 -34q-24 -28 -43 -126q-2 -11 -9 -47l-70 -387h764 l82 447q7 35 7 60.5t-6.5 41t-14.5 25.5t-23.5 14t-27 5t-31.5 1h-70l11 54q172 -7 288 -7q42 0 125.5 3.5t126.5 3.5l-10 -54h-37q-84 0 -114 -34q-24 -28 -43 -126q-2 -11 -9 -47l-170 -909q-16 -87 -16 -133q0 -25 5 -39q13 -35 81 -35h8h76l-10 -53q-45 0 -136.5 2 t-136.5 2q-88 0 -264 -4l10 53h39q31 -1 52 2t37 13.5t25 20t17.5 34t12.5 43.5t12 59l86 473h-760l-84 -438q-16 -87 -16 -133q0 -25 5 -39q13 -35 81 -35h8h76l-11 -53q-45 0 -136 2t-136 2q-88 0 -264 -4z" />
<glyph unicode="I" horiz-adv-x="796" d="M47 0l10 53h35q30 0 49.5 2t35.5 9.5t25 16t18 27.5t14.5 37.5t13.5 53.5l198 1083q5 27 -2 46t-17.5 28.5t-33 14t-35 5t-37.5 0.5h-12h-37l11 54q127 -5 301 -5q38 0 118 2.5t121 2.5l-10 -54h-39q-1 0 -9.5 0.5t-14.5 0t-17.5 -1t-20 -3t-20 -6.5t-20 -11t-17.5 -15.5 t-15 -22t-9 -29.5l-201 -1091q-7 -35 -7 -60q0 -40 17 -57q27 -27 125 -27h31l-10 -53q-45 0 -136.5 2t-136.5 2q-90 0 -266 -4z" />
<glyph unicode="J" horiz-adv-x="796" d="M-145 -354q0 31 22.5 53t54.5 22q31 0 48 -12.5t22.5 -30.5t10 -36t15.5 -30.5t33 -12.5q82 0 136 286l247 1299q23 112 23 131q0 29 -26 45t-68 16h-97l11 54q161 -7 274 -7q43 0 130.5 3.5t131.5 3.5l-10 -54h-53q-59 0 -80 -29t-35 -100l-192 -979 q-31 -166 -98 -344.5t-156 -279.5q-50 -57 -95.5 -84t-109.5 -27q-53 0 -96 31.5t-43 81.5z" />
<glyph unicode="K" horiz-adv-x="1478" d="M47 0l10 53h9q16 1 30.5 0.5t28 0.5t26 4t25 11t23.5 21q25 29 49 164l180 981q8 39 8 70q0 27 -11 43t-30 21t-43.5 7t-50.5 0h-35l10 54q117 -5 283 -5q41 0 124 2.5t124 2.5l-10 -54q-33 0 -57.5 -3.5t-53.5 -15t-48 -37.5t-26 -65l-94 -526h23q25 0 48 7.5t44.5 24 t36 29.5t37.5 37.5t34 34.5q77 75 236.5 254t159.5 213q0 47 -64 47h-10h-29l10 54q85 -5 203 -5q37 0 111.5 2.5t111.5 2.5l-10 -54q-69 0 -100 -14q-68 -32 -191 -150l-440 -452l412 -563q58 -78 87 -103q49 -41 99 -41h25l-11 -53q-27 0 -82 2t-83 2q-16 0 -46 -2t-45 -2 q-23 0 -50.5 29t-86.5 108q-40 54 -162.5 226.5t-195.5 269.5q-11 16 -17.5 23t-18 13.5t-26.5 6.5h-22l-74 -404q-18 -124 -18 -149q0 -14 4 -24.5t16.5 -22t42.5 -17.5t76 -6h31l-11 -53q-41 0 -121.5 2t-121.5 2q-95 0 -283 -4z" />
<glyph unicode="L" horiz-adv-x="1366" d="M66 0l10 53h53q80 7 110 45.5t48 143.5l180 1020q2 12 2 23q0 27 -12 45q-17 26 -46.5 34.5t-64 12.5t-61.5 -1l10 54q51 0 154.5 -2.5t154.5 -2.5q44 0 132 2.5t132 2.5l-10 -54q-38 1 -58.5 0t-44.5 -4.5t-36.5 -12t-26 -23.5t-21.5 -37.5t-16 -55.5l-215 -1177h434 q279 0 363 290h49l-110 -356q-418 4 -629 4q-321 0 -481 -4z" />
<glyph unicode="M" horiz-adv-x="1933" d="M29 0l10 53h22q47 0 73.5 5.5t50.5 26.5t40 59t33 106l254 1016q-24 66 -66.5 87t-119.5 23h-27l10 54q79 -5 193 -5q30 0 89 2.5t89 2.5l278 -1156l590 1156q61 -5 148 -5q35 0 105 2.5t104 2.5l-11 -54h-22q-86 0 -119.5 -32.5t-38.5 -106.5l-65 -1036v-18 q0 -67 27 -97q31 -32 114 -33h33l-11 -53q-44 0 -133 2t-133 2q-99 0 -295 -4l11 53h24q95 0 131 26.5t43 117.5l76 1017h-4l-623 -1214h-69l-271 1143h-4l-223 -950q-10 -50 -10 -60q0 -39 17.5 -59.5t64.5 -20.5h82l-11 -53q-29 0 -89 2t-89 2q-94 0 -278 -4z" />
<glyph unicode="N" horiz-adv-x="1705" d="M39 0l8 53h29q39 0 61.5 4.5t46 19.5t38.5 45.5t29 81t28 128.5l155 885q1 6 -14 30.5t-42.5 53.5t-53.5 40q-31 16 -65 25.5t-50 9.5h-19l9 54q107 -7 186 -7q22 0 68 3.5t69 3.5l783 -1162l145 854q14 63 14 138q0 72 -37.5 94t-111.5 22h-39l8 54q133 -7 227 -7 q40 0 121 3.5t121 3.5l-8 -54h-31q-20 0 -37 -4t-30 -8.5t-24.5 -16l-19 -19t-15 -25.5t-11.5 -27.5t-9.5 -33t-7.5 -33.5t-7 -38t-7 -38l-176 -957q33 -53 66.5 -88t79.5 -47l-11 -41q-82 4 -121 4q-40 0 -122 -4l-760 1128l-135 -827q-21 -134 -21 -154q0 -94 131 -94h66 l-11 -53q-41 0 -123.5 2t-123.5 2q-82 0 -246 -4z" />
<glyph unicode="O" horiz-adv-x="1820" d="M180 645q0 167 63.5 318t172 260t258.5 173t315 64q138 0 265.5 -47t224.5 -129.5t155 -205t58 -263.5q0 -173 -62 -329t-169.5 -269.5t-260.5 -180.5t-328 -67q-311 0 -501.5 183t-190.5 493zM381 602q0 -124 28.5 -225t87.5 -178.5t157 -120.5t229 -43q116 0 217 48 t171.5 127t121 180.5t74.5 208.5t24 212q0 118 -30 221t-89 185.5t-157 130t-224 47.5q-123 0 -226 -47.5t-172.5 -126t-118.5 -182t-71 -214t-22 -223.5z" />
<glyph unicode="P" horiz-adv-x="1251" d="M47 0l10 53h43q26 2 39.5 4t32 9t29 18.5t20.5 32.5t17 51l192 1085q3 16 3 30q0 47 -34 67q-44 26 -135 26h-22l10 54q120 -5 289 -5q48 0 143 2.5t143 2.5q107 0 190 -32.5t136 -107t53 -182.5q0 -99 -42.5 -180t-113 -132.5t-159 -79.5t-184.5 -28q-70 0 -105 4l10 62 h64q50 0 95.5 11t89 37t75 65t51 100.5t19.5 138.5q0 133 -66 195.5t-207 62.5q-1 0 -94 -6l-139 -772l-66 -371l-10 -74q0 -33 16 -53t40 -26t53.5 -9t56.5 0h37l-11 -53q-192 4 -288 4q-93 0 -281 -4z" />
<glyph unicode="Q" horiz-adv-x="1820" d="M115 -166q126 22 326 65.5t264 61.5l53 14v5q-264 31 -421 208t-157 457q0 167 63.5 318t172 260t258.5 173t315 64q138 0 265.5 -47t224.5 -129.5t155 -205t58 -263.5q0 -206 -85 -379.5t-257.5 -301.5t-413.5 -183q-452 -102 -455 -103v-4q58 -18 165.5 -48t135.5 -38 q22 -6 106 -30.5t127 -36t113.5 -28.5t128.5 -25t109 -9q21 0 43 3.5t45.5 11.5t38 25t14.5 40q0 14 -5 38t-5 28q0 27 19.5 45t46.5 18q53 0 53 -53q0 -43 -34.5 -88.5t-92 -82.5t-139.5 -60q-76 -21 -156 -21h-14q-66 1 -174.5 24.5t-192.5 48t-214 64.5t-169 51 q-71 24 -165 46.5t-150 25.5v41zM381 602q0 -124 28.5 -225.5t87.5 -179.5t157 -121t229 -43q116 0 217 48t171.5 127.5t121 181t74.5 209t24 212.5q0 118 -30 221t-89 185.5t-157 130t-224 47.5q-123 0 -226 -47.5t-172.5 -126t-118.5 -182t-71 -214t-22 -223.5z" />
<glyph unicode="R" horiz-adv-x="1478" d="M66 0l10 53h20q44 0 64 2.5t44 16t37.5 44.5t24.5 85l185 1016q8 36 8 67q0 55 -36.5 73.5t-121.5 18.5h-33l11 54q115 -5 274 -5q35 0 105.5 2.5t105.5 2.5q83 0 158.5 -14.5t147 -48t114.5 -98t43 -153.5q0 -87 -35.5 -157t-97 -115t-134 -73t-155.5 -40 q50 -48 98.5 -114.5t77 -113.5t79 -136.5t70.5 -124.5q5 -8 14 -23q21 -36 33 -54.5t35.5 -46.5t44 -41t51.5 -21q19 -5 40 -5q13 0 26 2l-10 -53h-252q-41 0 -105 90.5t-153 249.5q-11 19 -32.5 57.5t-32.5 58.5t-30.5 54t-31 52.5t-28 45t-28 41t-24 30t-22.5 23.5t-19 11 q-15 4 -65 4l-86 -504l-11 -80q0 -19 6.5 -33.5t20 -23t26 -13.5t34 -7t34 -2t35.5 -1h35l-10 -53q-188 4 -281 4q-94 0 -278 -4zM551 770q94 0 141 2q151 5 248.5 93.5t97.5 236.5q0 145 -86.5 203.5t-267.5 58.5h-27z" />
<glyph unicode="S" horiz-adv-x="1024" d="M47 -18l55 434h41q1 -14 3.5 -56t4 -60t8.5 -50t19 -60q29 -70 99.5 -112.5t152.5 -42.5q120 0 200.5 67.5t80.5 182.5q0 60 -25 119.5t-65.5 110t-89.5 102t-97.5 104.5t-89 107.5t-65.5 120.5t-25 134q0 166 106.5 271.5t276.5 105.5q113 0 223 -37q42 -14 58 -14 q10 0 16.5 2.5t13 8t10.5 7.5h35l-63 -360h-45q0 15 2 43t2 43q0 113 -68 177.5t-182 64.5q-102 0 -161.5 -56.5t-59.5 -158.5q0 -57 26.5 -115t69 -109.5t93.5 -103.5t102.5 -107t94 -110.5t69 -123t26.5 -136.5q0 -173 -127.5 -289.5t-312.5 -116.5q-61 0 -122 13.5 t-90 25t-85 35.5l-68 -61h-47z" />
<glyph unicode="T" horiz-adv-x="1366" d="M133 1114l76 346h37q28 -16 57 -22q27 -8 62 -8h960q74 0 111 30h34l-34 -350h-54v55q0 106 -31 143.5t-130 37.5h-281l-199 -1096q0 -4 -9 -54.5t-9 -62.5q0 -46 33.5 -63t115.5 -17h54l-11 -53q-55 0 -164 2t-163 2q-90 0 -266 -4l10 53h63h8q63 -1 94 31q33 34 50 129 l203 1133h-347q-35 0 -63.5 -7.5t-49 -24.5t-35 -32.5t-26 -42.5t-17.5 -42.5t-14.5 -45t-11.5 -37.5h-53z" />
<glyph unicode="U" horiz-adv-x="1593" d="M231 1376l11 54q132 -5 321 -5q45 0 136 2.5t137 2.5l-11 -52h-47q-53 -2 -85 -20.5t-58 -74t-43 -159.5l-111 -686q-6 -44 -6 -82q0 -76 29 -136t77.5 -95.5t106.5 -53.5t121 -18q75 0 135 16.5t102 40.5t75 70.5t52 84t36.5 106.5t25.5 113t20 126l99 561q6 35 6 78 q0 66 -43 96.5t-131 30.5h-31l10 54q102 -5 252 -5q37 0 111.5 2.5t111.5 2.5l-10 -54h-26q-27 0 -49.5 -10t-38 -23t-29 -38.5t-21 -43.5t-15.5 -53t-11 -51t-8.5 -53t-6.5 -45l-90 -545q-30 -173 -62 -256t-106 -154q-138 -135 -399 -135q-72 0 -139.5 12.5t-130.5 41.5 t-109 71.5t-74 106.5t-28 143q0 101 30 266l93 531q14 86 14 127q0 32 -9 53t-20.5 32t-36 16.5t-40 6t-48.5 0.5h-39z" />
<glyph unicode="V" horiz-adv-x="1478" d="M213 1376l10 54q43 0 130 -2.5t130 -2.5q45 0 137 2.5t138 2.5l-10 -54h-11q-51 0 -83 -5t-53.5 -25t-14.5 -56l213 -1050h4l481 991q25 55 25 84q0 61 -160 61h-16l10 54q97 -5 231 -5q37 0 109.5 2.5t109.5 2.5l-10 -54h-15q-56 0 -88 -20q-36 -23 -67 -84l-676 -1303 h-69l-265 1260q-16 83 -50 115t-128 32h-12z" />
<glyph unicode="W" horiz-adv-x="2048" d="M223 1376l10 54q48 -2 138.5 -3.5t111.5 -1.5h23q38 0 96 2q78 3 111 3l-11 -54h-20q-51 0 -81.5 -12.5t-29.5 -48.5q2 -32 15 -78l229 -1012l281 494l-156 581q-14 40 -43 56.5t-90 19.5h-25l11 54q48 -2 138.5 -3.5t110.5 -1.5h24q38 0 90 2q70 3 81 3l-10 -54h-39 q-30 -1 -44.5 -20t-8.5 -45l86 -373h4l168 307q26 57 26 80q0 32 -19 40.5t-77 10.5h-18l10 54q34 -2 100.5 -3.5t81.5 -1.5h35q66 0 162 5l-11 -54h-30q-16 1 -29.5 -0.5t-25.5 -7t-21 -8.5t-19.5 -14.5t-15.5 -16t-15.5 -20.5t-14 -21t-15 -25.5t-14.5 -25.5l-234 -395 l154 -617h4l473 983q35 77 35 113q0 32 -23.5 43t-101.5 12h-25l11 54q86 -6 156 -6q26 0 50 1q152 5 187 5l-10 -54h-17q-27 -1 -46 -9t-37 -31.5t-26 -38t-30 -56.5l-651 -1272h-58l-174 649l-377 -649h-53l-315 1331q-9 40 -37 56.5t-90 19.5h-25z" />
<glyph unicode="X" horiz-adv-x="1593" d="M29 0l10 53h33q67 6 118 33q35 17 101 90l459 512l-324 588q-34 62 -72.5 81t-117.5 19h-27l10 54q51 -2 148.5 -3.5t119.5 -1.5h52q96 0 229 5l-10 -54h-17q-112 0 -112 -49q0 -27 30 -82l226 -414l379 443q24 31 24 49q0 53 -125 53h-20l10 54q39 0 118 -2.5t118 -2.5 q36 0 107 2.5t108 2.5l-11 -54h-30q-36 0 -81.5 -27t-74.5 -59l-483 -526l311 -559q47 -87 81 -119.5t93 -32.5h47l-10 -53q-43 0 -128 2t-128 2q-93 0 -281 -4l11 53h22q17 -2 36 -0.5t35.5 5.5t27 15.5t10.5 30.5q0 31 -39 101l-224 411l-368 -440q-37 -42 -43 -65 q-2 -8 -2 -17q0 -41 91 -41h21h19l-10 -53q-38 0 -115 2t-115 2q-77 0 -237 -4z" />
<glyph unicode="Y" horiz-adv-x="1366" d="M190 1376l9 54q105 -5 252 -5q45 0 134 2.5t134 2.5l-10 -54h-74q-38 0 -61.5 -18.5t-6.5 -57.5l262 -620l373 584q27 41 27 69q0 43 -127 43h-35l8 54q103 -5 248 -5q88 0 152 5l-11 -54h-8q-62 0 -129 -96l-20 -31l-451 -661l-76 -402q-4 -22 -4 -39.5t2 -31t9.5 -23.5 t14 -16.5t20.5 -11t23.5 -6.5t29 -3.5t30.5 -1.5h33h37l-10 -53q-52 0 -158 2t-158 2q-88 0 -264 -4l8 53h45h9q54 0 83 11q31 13 42.5 36t21.5 76l78 408l-316 721q-16 35 -56.5 53t-88.5 18h-21z" />
<glyph unicode="Z" horiz-adv-x="1478" d="M43 0v16l1122 1336h-477q-50 0 -80 -1t-67 -4t-59 -9.5t-48.5 -18t-43.5 -28t-36.5 -41t-35 -56.5t-31.5 -74h-49l90 310h1114v-17l-1110 -1329h647q22 0 42 1.5t35.5 3t31.5 6t25.5 7t22 9t18 9t16.5 10t13 9.5t12 10t11 9q32 25 64.5 89t52.5 128h47l-96 -375 q-422 4 -633 4q-99 0 -299 -2t-299 -2z" />
<glyph unicode="[" horiz-adv-x="681" d="M84 -373l346 1817l14 16q23 0 75.5 -2t72.5 -2q26 0 78 2t78 2l-9 -53h-67q-71 0 -100.5 -15t-39.5 -71l-299 -1565q-6 -48 -6 -49q0 -49 113 -49h90l-8 -53q-28 0 -86 2t-86 2q-26 0 -82 -2t-78 -2z" />
<glyph unicode="\" horiz-adv-x="569" d="M18 1460h136l479 -1491h-135z" />
<glyph unicode="]" horiz-adv-x="681" d="M-45 -395l8 53h68q70 0 99.5 15t39.5 71l299 1565q6 48 6 49q0 26 -14 37q-15 12 -99 12h-90l9 53q29 0 86 -2t86 -2q26 0 81.5 2t77.5 2l6 -22l-346 -1817l-14 -16q-23 0 -75 2t-72 2q-26 0 -78 -2t-78 -2z" />
<glyph unicode="^" d="M137 666l371 747h123l370 -747h-139l-293 596l-293 -596h-139z" />
<glyph unicode="_" horiz-adv-x="1024" d="M0 -154h1024v-102h-1024v102z" />
<glyph unicode="`" horiz-adv-x="569" d="M180 1395q0 22 19.5 43.5t42.5 21.5q26 0 37.5 -6t29.5 -27l248 -309h-43q-12 0 -35 17l-239 180q-60 49 -60 80z" />
<glyph unicode="a" horiz-adv-x="1024" d="M27 139q0 118 67 261.5t165 260t216.5 196t214.5 79.5q75 0 129 -68l29 66q0 1 3.5 6.5t5 8t5 7.5t6 7.5t7 5.5t9 4.5t9.5 1.5h43q18 0 18 -10q0 -1 -4 -17l-202 -727q-9 -27 -9 -51q0 -29 25 -29q26 0 53 20.5t58 56.5t40 44l33 -26q-17 -18 -51 -59t-62.5 -72.5 t-64.5 -65t-74 -52t-75 -18.5q-27 0 -48.5 15t-21.5 43q0 38 35 149l57 180l-2 6q-44 -67 -94 -129.5t-111.5 -125t-128.5 -100.5t-125 -38q-36 0 -64 10.5t-44.5 27.5t-27.5 40.5t-15 45.5t-4 46zM178 262q0 -60 25 -100.5t80 -40.5q71 0 154 70.5t147 168t107.5 202.5 t43.5 173q0 39 -31.5 72t-70.5 33q-79 0 -163.5 -62t-147.5 -151t-103.5 -189t-40.5 -176z" />
<glyph unicode="b" d="M106 188q0 50 25 152l270 1077l-96 60l6 36q47 4 158 27q88 19 131 33l16 -12l-266 -916l4 -4q50 57 95.5 101.5t107 92.5t128.5 74.5t132 26.5q119 0 175.5 -69t56.5 -191q0 -96 -41 -199t-112 -192t-159.5 -161t-190 -113.5t-196.5 -41.5q-107 0 -175.5 55.5 t-68.5 163.5zM258 197q0 -72 30 -123t95 -51q90 0 184 74.5t162 181t112 225t44 205.5q0 143 -123 143q-73 0 -149.5 -46t-138 -119t-111.5 -160t-77.5 -174.5t-27.5 -155.5z" />
<glyph unicode="c" horiz-adv-x="909" d="M98 248q0 201 131.5 371t321.5 247q160 70 229 70q37 0 69 -22.5t32 -59.5q0 -45 -28 -75.5t-67 -30.5q-37 0 -87.5 32.5t-80.5 32.5q-73 0 -142 -61t-114 -148t-72.5 -178.5t-27.5 -157.5q0 -88 52 -138t143 -50q161 0 366 219l29 -37q-56 -64 -107 -111t-114.5 -91 t-135 -67.5t-147.5 -23.5q-119 0 -184.5 77.5t-65.5 201.5z" />
<glyph unicode="d" d="M74 217q0 184 139 387q38 55 92 111t118 106.5t137 82.5t136 32q78 0 156 -45l100 516l-123 66l11 28q58 5 149 23q61 13 150 41l20 -9l-317 -1325q-11 -49 -11 -67q0 -33 33 -33q10 0 22.5 5t23.5 11.5t25.5 19t23.5 21t24 25t21 23t19.5 22.5t14.5 18l29 -28 q-205 -279 -344 -279q-27 0 -45.5 18.5t-18.5 45.5q0 51 39 180l15 45h-4q-43 -51 -72 -83t-76 -75.5t-87.5 -68.5t-94 -43.5t-107.5 -18.5q-103 0 -150.5 69t-47.5 179zM238 268q0 -80 35 -134t112 -54q60 0 123 45t113 115t90.5 150t63 155t22.5 125q0 82 -34 132t-112 50 q-66 0 -131 -42.5t-114.5 -109t-88 -145t-59 -154.5t-20.5 -133z" />
<glyph unicode="e" horiz-adv-x="909" d="M74 246q0 120 51 245.5t132 223t190 159.5t217 62q37 0 70.5 -7t63.5 -22.5t48 -45.5t18 -70q0 -80 -43 -146t-108 -108.5t-150.5 -73.5t-160.5 -46t-148 -22q-16 -71 -16 -157q0 -74 47 -116t121 -42q159 0 356 190l29 -34q-113 -126 -226 -196.5t-239 -70.5 q-68 0 -118.5 23.5t-78.5 64t-41.5 88t-13.5 101.5zM264 449q75 5 148 26.5t139.5 60t107.5 102.5t41 144q0 40 -22.5 64t-61.5 24q-56 0 -116.5 -46.5t-107 -114t-81 -137.5t-47.5 -123z" />
<glyph unicode="f" horiz-adv-x="681" d="M0 -455l315 1276h-184l23 84h180q24 84 39.5 131.5t42.5 115t55 113.5t71.5 99.5t98.5 101.5q46 41 105.5 70t113.5 29q35 0 59.5 -16t24.5 -50q0 -28 -16 -63t-41 -35q-19 0 -62 20.5t-67 20.5q-30 0 -55 -10t-44 -31t-32.5 -42t-25.5 -55.5t-18.5 -57t-15.5 -60.5 l-71 -281h225l-25 -84h-223l-342 -1251l-125 -37z" />
<glyph unicode="g" horiz-adv-x="1024" d="M-37 -231q0 36 15 69t44 60.5t57.5 48.5t72 42t69 32t64.5 26q-7 4 -26.5 15t-31.5 19.5t-27 21t-22.5 27t-7.5 30.5q0 19 9.5 38.5t20.5 33t33.5 32.5t34 27t38 25t30.5 20q-90 49 -132 106t-42 150t59.5 173.5t151 125.5t188.5 45q54 0 95 -9t91 -27.5t84 -27.5 q35 -10 43 -10q26 0 68 25q40 24 64 24q32 0 32 -59q0 -30 -13 -53t-36 -23q-19 0 -69.5 24.5t-92.5 28.5q66 -72 66 -172q0 -103 -62 -185.5t-156 -124.5t-196 -42q-47 0 -94 6q-15 -5 -39 -31t-24 -40q0 -13 6.5 -22t12 -12.5t19.5 -10.5l322 -166q37 -20 54 -30t42 -29.5 t36 -37t19.5 -45.5t8.5 -63q0 -73 -47.5 -132t-119.5 -92t-147.5 -50t-142.5 -17q-50 0 -100.5 5t-110.5 21t-105 40.5t-75.5 68.5t-30.5 101zM98 -199q0 -55 30.5 -96t79.5 -63t100 -32.5t102 -10.5q43 0 89 7.5t95.5 24.5t81 51.5t31.5 81.5q0 72 -101 123l-260 133 q-22 -8 -57 -25t-81 -45.5t-78 -68.5t-32 -80zM326 541q0 -82 35 -132.5t114 -50.5q77 0 137.5 60t88.5 138.5t28 152.5q0 73 -35.5 123.5t-109.5 50.5h-8q-44 0 -82 -19q-43 -22 -73 -59t-52 -83t-32.5 -93t-10.5 -88z" />
<glyph unicode="h" d="M59 39q0 9 2.5 19.5t6 23.5t4.5 20l323 1325l-100 58l6 26q61 7 135 19q55 9 146 35l22 -9l-289 -1079h4q36 57 98.5 131t140.5 149.5t165 127t154 51.5q147 0 147 -178q0 -78 -43 -206t-107.5 -250.5t-150 -212t-160.5 -89.5q-49 0 -49 45q0 11 10 41l43 100h142 q55 112 103 260.5t48 245.5q0 121 -82 121q-49 0 -119 -50t-133.5 -121t-114.5 -140t-75 -115q-34 -63 -56 -120t-32 -93.5t-35 -136.5q-7 -33 -88 -33q-24 0 -45 9t-21 26z" />
<glyph unicode="i" horiz-adv-x="569" d="M82 51q0 26 22 101l177 520q18 52 18 76t-25 24q-46 0 -145 -131l-29 29q35 54 84 110t117.5 106t122.5 50q63 0 63 -51q0 -28 -28 -115l-168 -520q-21 -68 -21 -86q0 -31 27 -31q19 0 74 51t82 82l32 -26q-199 -271 -325 -271q-78 0 -78 82zM375 1317q0 37 28 66.5 t66 29.5t66 -29.5t28 -66.5q0 -35 -28.5 -63.5t-65.5 -28.5t-65.5 28.5t-28.5 63.5z" />
<glyph unicode="j" horiz-adv-x="569" d="M-78 -422q87 53 125 195l236 901q16 61 16 74q0 24 -25 24q-46 0 -145 -131l-29 29q35 54 84 110t117.5 106t122.5 50q63 0 63 -51q0 -11 -7.5 -41t-20.5 -73.5t-17 -59.5l-213 -766q-8 -29 -15 -52t-14.5 -44t-12 -34t-13.5 -30t-12 -24t-14 -23.5l-14 -21t-17.5 -24.5 t-18.5 -26q-58 -81 -161 -133zM375 1319q0 37 28.5 65.5t65.5 28.5q36 0 65 -28t29 -66q0 -37 -28.5 -65.5t-65.5 -28.5q-38 0 -66 29t-28 65z" />
<glyph unicode="k" d="M84 14l342 1389l-100 61l6 33q51 9 142 31t138 37l19 -9l-238 -907h4q42 59 107 121t156 114t167 52q70 0 112 -40.5t42 -111.5q0 -73 -45.5 -140t-117.5 -115t-147.5 -81.5t-148.5 -50.5v-4q41 -17 90.5 -69.5t104.5 -119.5t92 -98q38 -32 68.5 -42.5t83.5 -10.5 q24 0 61 23v-53q-89 -54 -199 -54q-141 0 -243 133l-146 193q-25 36 -49 57.5t-57 28.5l-101 -369q-11 -41 -75 -41q-30 0 -51 13q-18 11 -18 25q0 2 1 5zM334 422q28 0 86 4q57 5 126 28t133 59.5t107 91t43 112.5q0 44 -26.5 70t-81.5 26q-50 0 -103 -27.5t-97.5 -70.5 t-83.5 -95.5t-65 -103.5t-38 -94z" />
<glyph unicode="l" horiz-adv-x="569" d="M96 70q0 37 15 100l286 1237l-123 66l11 28q58 5 149 23q61 13 150 41l14 -13l-319 -1335q-7 -28 -7 -41q0 -21 5 -32t22 -11q41 0 158 158l24 -43q-11 -14 -37.5 -50.5t-45.5 -62t-49 -59.5t-56 -55t-58.5 -36.5t-62.5 -15.5q-76 0 -76 101z" />
<glyph unicode="m" horiz-adv-x="1705" d="M47 676q211 260 356 260q35 0 52.5 -20.5t17.5 -51.5q0 -29 -22 -98l-107 -309h4q41 59 108.5 135.5t150.5 156t172 133.5t153 54q45 0 68.5 -18.5t23.5 -49.5q0 -39 -23 -110l-98 -305h4q52 65 117.5 136t154.5 155t181 138t160 54q82 0 82 -84q0 -39 -21 -100 l-164 -480q-3 -10 -11 -32.5t-12.5 -38t-4.5 -25.5q0 -11 10 -17.5t22 -6.5q25 0 85.5 47.5t92.5 81.5l29 -31l-63 -70q-75 -83 -144 -131.5t-145 -48.5t-76 70q0 23 25 96l166 475q22 64 22 84q0 23 -14 36t-33 13q-37 0 -89.5 -32t-106 -82.5t-92 -92.5t-70.5 -80 q-129 -159 -211 -372l-39 -95q-4 -12 -27.5 -18t-42.5 -6t-43.5 9.5t-28.5 19.5l185 544q1 2 6 17.5t9 30t9 33.5t8 37.5t3 33.5q0 51 -39 51q-36 0 -75.5 -18t-83.5 -56.5t-64.5 -59.5t-61.5 -66q-10 -10 -14 -15q-175 -187 -256 -418l-41 -116q-4 -11 -28.5 -17t-47.5 -6 q-16 0 -37.5 8.5t-28.5 18.5l217 653l3.5 14t4 19.5t1.5 17.5q0 41 -33 41q-47 0 -119 -72l-55 -61z" />
<glyph unicode="n" d="M61 678q210 258 357 258q35 0 52 -19.5t17 -50.5q0 -29 -22 -98l-107 -309h4q32 46 81 104t116 125t135 121.5t141 90.5q71 36 127 36h3q82 0 82 -84q0 -39 -21 -100l-164 -451q-31 -84 -31 -106q0 -43 37 -43t92 49t84 94l35 -27l-73 -90q-146 -178 -285 -178 q-38 0 -58 19.5t-20 48.5q0 53 29 127l159 436q27 81 27 102q0 19 -14 29t-33 10q-39 0 -80 -19t-81.5 -54t-66.5 -62t-61 -66q-3 -4 -5.5 -6.5t-4.5 -5.5q-175 -187 -256 -418l-41 -116q-4 -11 -28.5 -17t-47.5 -6q-16 0 -37 8.5t-28 18.5l200 604q25 81 25 102 q0 37 -33 37q-49 0 -119 -70l-55 -61z" />
<glyph unicode="o" d="M98 381q0 109 44.5 211t118.5 177.5t175.5 121t210.5 45.5q176 0 284.5 -118t108.5 -298q0 -107 -43.5 -208t-115.5 -176t-172 -121t-207 -46q-184 0 -294 112.5t-110 299.5zM262 311q0 -61 12.5 -110.5t39 -90.5t74 -64t112.5 -23q64 0 119.5 27.5t95.5 74t72 105 t51 123t29 126t10 115.5q0 45 -7 85.5t-24 78.5t-43 65t-66.5 43.5t-91.5 16.5q-66 0 -123 -26.5t-98 -72t-73 -103t-51 -122.5t-28.5 -127.5t-9.5 -120.5z" />
<glyph unicode="p" d="M-6 -451l311 1244q-170 -60 -244 -99l15 80q106 46 246 88l65 246l170 49l-63 -258q99 37 225 37q309 0 309 -254q0 -102 -51.5 -227t-132 -232.5t-191 -180.5t-217.5 -73q-87 0 -164 60l-100 -400l166 -28l-10 -37q-6 0 -181 -15q-88 -9 -141 -16zM326 160 q0 -42 31 -89.5t81 -47.5q75 0 153.5 74.5t134 179.5t91 216t35.5 187q0 48 -14 84t-34.5 55.5t-49.5 31.5t-52.5 15.5t-48.5 3.5q-111 0 -176 -30l-129 -514q-1 -8 -8.5 -42t-10.5 -61.5t-3 -62.5z" />
<glyph unicode="q" d="M74 172q0 122 47 242t122 211.5t163.5 163.5t175 109.5t153.5 37.5q61 0 99 -26t57 -89h4l47 135l123 39l-346 -1390l137 -29l-10 -43q-72 4 -213 4q-164 0 -246 -4l10 49l160 23l199 739h-4q-45 -61 -96 -118.5t-118 -119.5t-142 -99.5t-142 -37.5q-82 0 -131 64 t-49 139zM225 276q0 -71 32.5 -121.5t100.5 -50.5q77 0 161.5 63t148 153.5t105.5 192.5t42 177q0 69 -40.5 109.5t-110.5 40.5q-78 0 -159.5 -59.5t-142 -146t-99 -184.5t-38.5 -174z" />
<glyph unicode="r" horiz-adv-x="796" d="M57 662q33 49 81 106t115.5 112.5t113.5 55.5q84 0 84 -78q0 -27 -21 -106l-78 -281h4q246 465 377 465q64 0 64 -70q0 -28 -7.5 -60.5t-28.5 -61.5t-50 -29q-13 0 -38 4t-38 4q-34 0 -70 -29.5t-69.5 -82t-64.5 -112t-60 -133.5t-49.5 -131t-40.5 -118l-37 -131 q-5 -17 -74 -17q-21 0 -43.5 12t-22.5 25q0 4 5 19l161 565q25 82 25 121q0 20 -10 36.5t-29 16.5q-36 0 -84.5 -44t-87.5 -93z" />
<glyph unicode="s" horiz-adv-x="796" d="M29 129q0 22 8.5 47.5t14.5 36.5t24 43h26q9 -55 52.5 -93.5t97 -54.5t110.5 -16q26 0 53.5 3.5t58.5 12.5t51 29t20 47q0 39 -31 78t-78.5 73t-97 66.5t-93 71t-59.5 74.5q-18 37 -18 94q0 37 21.5 74.5t62 72.5t69 55.5t70.5 47.5t72.5 36t79.5 9q178 0 178 -123 q0 -24 -13 -58t-30 -34h-25q-5 0 -8.5 1.5t-6.5 5.5t-4 6l-4.5 9l-4.5 9q-13 29 -64.5 51t-103.5 22q-59 0 -106.5 -30t-47.5 -86q0 -46 37.5 -87.5t90.5 -75t106.5 -69t91 -85.5t37.5 -109q0 -91 -134 -220q-94 -94 -243 -94q-42 0 -83 7t-83 23.5t-68 50t-26 79.5z" />
<glyph unicode="t" horiz-adv-x="681" d="M100 76q0 36 27 131l182 614h-200l24 84h199l78 258h163l-84 -258h220l-25 -84h-217l-178 -592q-13 -39 -13 -63q0 -45 41 -45q28 0 63 17.5t77.5 54.5t60 53.5t53.5 52.5l29 -35q-119 -132 -185 -188q-129 -106 -225 -107q-42 0 -66 32t-24 75z" />
<glyph unicode="u" d="M51 674l70 71q42 42 69 67t68.5 58t79.5 49.5t72 16.5q31 0 49 -17.5t18 -48.5q0 -36 -26 -106l-185 -551q-4 -20 -4 -29q0 -20 35 -20q49 0 141.5 85t183 200.5t168 235t103.5 187.5q12 32 27 48t43 16q12 0 26.5 -7.5t23 -13.5t24.5 -21t18 -17l-224 -668 q-6 -15 -6 -29q0 -28 31 -28q24 0 56 22t74 61t48 44l29 -29q-3 -3 -32.5 -36t-39 -43t-39 -39.5t-45.5 -42t-44.5 -34t-49.5 -30.5t-48 -17t-52 -8q-36 0 -56 19t-20 53q0 39 39 151l123 363h-4q-5 -6 -36.5 -47t-49.5 -64t-57 -71.5t-66.5 -80t-69.5 -78t-75 -77 t-73.5 -65.5t-74 -55.5t-69 -34t-64.5 -13.5q-34 0 -60 24t-26 56q0 23 20 88l178 528l8 28q1 9 1 17q0 31 -27 31q-21 0 -47.5 -17t-44 -33.5t-45 -46.5t-33.5 -36z" />
<glyph unicode="v" horiz-adv-x="1024" d="M51 705q15 14 56 54t68.5 64t67 54t78.5 44.5t76 14.5q68 0 68 -76q0 -37 -25 -117l-139 -469q-25 -73 -25 -106q0 -34 26 -55t65 -21q60 0 129 45t125 112t100 137.5t65 127.5q41 103 41 193q0 17 -2 53t-2 53q0 52 22 87.5t70 35.5q39 0 57.5 -29t18.5 -71 q0 -126 -97.5 -300.5t-207.5 -299.5q-55 -64 -116.5 -119t-146 -101.5t-155.5 -46.5t-113 39.5t-42 112.5q0 46 22 123l125 399q16 59 16 90q0 51 -38 51q-31 0 -75 -36t-79 -76z" />
<glyph unicode="w" horiz-adv-x="1593" d="M57 680q29 36 67.5 75t87.5 82t100 71t89 28q32 0 55 -15.5t23 -48.5q0 -23 -8 -47l-192 -592q-9 -34 -9 -57q0 -22 10 -32.5t35 -10.5q42 0 116.5 52t144 120t124 129.5t68.5 85.5q13 49 30 106t50.5 144.5t58.5 112.5q12 14 45 29t56 20q35 -8 65 -51q-6 -64 -37 -131 q-19 -43 -100 -160l-82 -350q-8 -32 -8 -58q0 -39 20.5 -64.5t61.5 -25.5q172 0 366 293q105 162 105 295q0 26 -8.5 75t-8.5 74q0 36 29.5 69.5t65.5 33.5q86 0 86 -115q0 -66 -34 -154t-87.5 -174t-105.5 -157t-103 -129q-82 -91 -197.5 -162.5t-216.5 -71.5 q-61 0 -99 38.5t-38 94.5q0 43 10.5 92t27 108.5t23.5 92.5h-4q-19 -18 -82.5 -83t-115.5 -114.5t-119 -107t-127 -89.5t-105 -32q-26 0 -44 11.5t-26 30.5t-11 35t-3 32q0 52 19 123l145 495q4 12 4 31q0 33 -28 33q-10 0 -26.5 -9t-37 -25t-36.5 -30t-35 -31t-23 -20z" />
<glyph unicode="x" d="M4 76q0 46 29.5 83.5t72.5 53.5l23 -14q-4 -20 -4 -29q0 -22 14.5 -35.5t38.5 -13.5q70 0 164 121l141 184l-53 182q-50 164 -129 164q-80 0 -141 -129l-39 21q14 48 36 92.5t53 86.5t74.5 67.5t92.5 25.5q62 0 99 -44t63 -120l59 -182l100 133q35 45 62.5 75.5t64.5 64 t75.5 50.5t78.5 17q39 0 63.5 -26.5t24.5 -65.5q0 -48 -29 -85t-69 -57l-17 11q-7 31 -19.5 45t-47.5 14q-47 0 -88.5 -34.5t-89.5 -96.5l-89 -117l74 -248q8 -29 11.5 -41t13.5 -36.5t19 -35.5t25 -20.5t36 -9.5q29 0 57 17t41 32.5t38.5 52.5t31.5 45l32 -24 q-7 -11 -23 -39t-26.5 -46.5t-29 -46.5t-33 -47t-35.5 -40.5t-40.5 -34.5t-43 -22t-47.5 -9q-28 0 -51 13t-38 30t-29.5 48t-22 52t-17.5 56l-59 201l-140 -197q-53 -75 -123.5 -137t-125.5 -62q-53 0 -81 32t-28 75z" />
<glyph unicode="y" horiz-adv-x="1024" d="M27 -385q0 36 19 60t54 24q13 0 41 -7t45 -7q89 0 174 98l111 129l-6 106l-19 170q-14 103 -33 195t-48 189t-70 154.5t-88 57.5q-43 0 -70.5 -26.5t-27.5 -67.5q0 -40 14 -78l-19 -14l-49 29q0 54 11.5 105.5t36 99t69.5 76t104 28.5t106.5 -35t77.5 -97t52 -134.5 t35.5 -158.5t22 -158.5l17 -145t15.5 -107.5q8 15 45 79.5t52.5 93t45 89t43 99.5t25.5 90t12 94q0 40 -12 91t-12 77q0 49 25.5 86t70.5 37q41 0 60.5 -32t19.5 -77q0 -79 -53.5 -219.5t-130 -283.5t-155.5 -270t-136 -199q-6 -7 -30 -40t-35.5 -47t-37 -46t-42.5 -48.5 t-43 -42.5t-48 -40.5t-48.5 -29.5t-53 -21.5t-53.5 -6.5q-33 0 -58.5 24.5t-25.5 57.5z" />
<glyph unicode="z" horiz-adv-x="909" d="M27 25q0 30 7.5 48.5t28.5 39.5l590 606q-12 -1 -23 -1q-43 0 -84 12q-52 15 -122 46q-62 25 -117 25q-36 0 -65 -22t-29 -56q0 -1 10 -23.5t8 -37.5q-3 -21 -16 -33.5t-31 -12.5q-26 0 -39.5 21t-13.5 49q0 24 11 47t22.5 36t34.5 36q126 131 213 131q52 0 164 -53.5 t153 -53.5q35 0 55 13q5 2 7.5 4.5t4 6.5t2 6t1 8.5t0.5 9.5q4 71 57 71q39 0 39 -41q0 -18 -35 -62t-72 -79l-532 -551h7q41 -1 99 -31q62 -34 115.5 -76t111 -78t91.5 -36q35 0 55 22t6 54q-1 5 -15.5 36t-14.5 46q0 14 15 29.5t38 15.5q26 0 40.5 -22.5t14.5 -49.5 q0 -94 -75 -180t-166 -86q-34 0 -78.5 27t-87.5 65t-85.5 76t-86 65t-76.5 27q-18 0 -36.5 -11t-18.5 -28q0 -22 7 -40t7 -28q0 -40 -43 -43q-24 -3 -38.5 14t-14.5 42z" />
<glyph unicode="{" horiz-adv-x="681" d="M106 532q96 28 137.5 82.5t61.5 163.5l70 381q17 95 48 155.5t78.5 92t100 42.5t129.5 11l-6 -28q-96 -21 -144 -83t-69 -178l-66 -362q-22 -123 -66.5 -185.5t-148.5 -88.5l-2 -5q69 -20 99 -57t30 -98q0 -51 -12 -119l-65 -362q-11 -68 -11 -99q0 -67 30 -106t99 -56 l-6 -28q-64 0 -107 7t-79.5 26.5t-54 58t-17.5 96.5q0 49 12 113l70 381q10 62 10 96q0 58 -28 92.5t-93 56.5z" />
<glyph unicode="|" horiz-adv-x="454" d="M190 -31v1596h136v-1596h-136z" />
<glyph unicode="}" horiz-adv-x="681" d="M-20 -395l6 28q96 21 144 83t69 178l65 362q24 125 67.5 186.5t149.5 87.5v5q-67 19 -98 54.5t-31 92.5q0 47 13 127l67 362q10 58 10 95q0 69 -30 109t-99 57l4 28q66 0 109.5 -7.5t79.5 -28.5t52.5 -61.5t16.5 -102.5q0 -36 -10 -101l-69 -381q-11 -59 -11 -108 q0 -52 29 -85t92 -53q-98 -28 -139 -82t-61 -163l-70 -381q-17 -95 -48 -155.5t-78.5 -92t-100 -42.5t-129.5 -11z" />
<glyph unicode="~" d="M96 412q92 176 256 176q96 0 240 -68q7 -3 35.5 -16t37 -16.5t31.5 -12.5t34.5 -12.5t28 -6.5t29.5 -3q55 0 95.5 37t85.5 106l73 -102q-29 -41 -49 -65.5t-52.5 -54t-71 -43.5t-83.5 -14q-15 0 -30.5 2t-27.5 4t-29 7.5t-25.5 8t-27.5 11t-24.5 11t-27 12.5t-25.5 12 q-42 22 -70.5 34t-71.5 23t-85 11q-106 0 -172 -144z" />
<glyph unicode="&#xa1;" horiz-adv-x="681" d="M37 -303q0 87 67 266l238 615h41l-78 -625q-45 -365 -178 -365q-45 0 -67.5 31.5t-22.5 77.5zM272 860q0 55 40 94t96 39q55 0 95 -39t40 -94q0 -54 -40.5 -95.5t-94.5 -41.5t-95 41t-41 96z" />
<glyph unicode="&#xa2;" d="M137 248q0 112 43 217.5t116 188t166.5 144.5t196.5 97l70 256h72l-64 -231q22 8 45 12q28 4 39 4q101 0 101 -84q0 -39 -28.5 -71.5t-66.5 -32.5q-28 0 -65.5 25t-56.5 28l-197 -721q151 4 356 219l29 -39q-99 -112 -199 -184.5t-215 -95.5l-73 -271h-70l72 262 q-8 -2 -19 -2q-119 0 -185.5 78t-66.5 201zM301 283q0 -169 139 -195l197 721q-69 -5 -134 -65.5t-107.5 -144t-68.5 -169.5t-26 -147z" />
<glyph unicode="&#xa3;" d="M76 39q0 58 64 112.5t128 75.5q4 4 33 68q38 84 80 459h-229l16 84h225q17 86 24.5 123.5t26.5 111.5t38 119t50.5 102.5t71.5 104.5q105 126 225 153q54 13 89 13q43 0 80.5 -10t67.5 -38.5t30 -72.5q0 -35 -21 -57.5t-53 -22.5q-19 0 -47 12q-5 14 -8 34t-8.5 33 t-20.5 27q-35 31 -76 31t-76 -22t-59 -58.5t-44 -87.5t-32 -103.5t-23 -112t-17.5 -108t-13.5 -97t-13 -74.5h278l-16 -84h-277q-57 -300 -219 -514q11 1 36.5 6.5t39.5 5.5q53 0 105 -19t94 -46.5t81 -55t79 -46.5t75 -19q42 0 72.5 27t30.5 67t-19 58t-65 36q6 48 26.5 68 t55.5 20q42 0 62.5 -34.5t20.5 -80.5q0 -75 -44.5 -135.5t-111.5 -91.5t-140 -31q-62 0 -116.5 20.5t-93.5 49.5t-74 58.5t-74 50t-77 20.5q-13 -12 -51 -61.5t-73 -78t-72 -28.5q-41 0 -41 39z" />
<glyph unicode="&#xa4;" d="M86 283l113 116q-107 131 -107 308q0 193 111 307l-117 116l90 91l115 -113q62 52 144 79t169 27q179 0 303 -106l115 113l90 -91l-117 -116q113 -110 113 -307q0 -184 -107 -308l113 -116l-88 -88l-111 116q-127 -112 -311 -112q-190 0 -319 112l-111 -116zM227 707 q0 -158 111 -271.5t266 -113.5q153 0 261 115t108 270q0 154 -108.5 269.5t-260.5 115.5q-156 0 -266.5 -113.5t-110.5 -271.5z" />
<glyph unicode="&#xa5;" d="M47 1374l10 56q143 -7 250 -7q45 0 134 3.5t134 3.5l-10 -54q-39 0 -58 -1t-43 -4.5t-34 -13.5t-10 -26q0 -21 14 -53l252 -598l322 498q77 119 77 159q0 39 -161 39l10 54q140 -7 246 -7q62 0 151 7l-10 -54q-25 0 -48.5 -11t-45.5 -34.5t-33.5 -38.5t-30.5 -43 l-387 -571h211l-16 -84h-256q-14 -25 -17 -41l-20 -117h266l-16 -84h-266l-33 -178q-4 -28 -4 -53q0 -16 6 -28.5t20 -19.5t27 -11.5t37.5 -6t39.5 -2t44 -0.5h32l-10 -53q-52 0 -157.5 2t-157.5 2q-88 0 -264 -4l10 53h22q73 0 109.5 9.5t49.5 27.5t20 55l41 207h-271 l17 84h270l29 148l-7 10h-258l17 84h211l-260 598q-16 36 -34 57t-52 31q-35 10 -109 10z" />
<glyph unicode="&#xa6;" horiz-adv-x="454" d="M190 -31v578h136v-578h-136zM190 987v578h136v-578h-136z" />
<glyph unicode="&#xa7;" d="M100 -272q0 36 21 60t57 24q30 0 53.5 -22t38 -49t41.5 -49t62 -22q54 0 94.5 28t63 74.5t33 100t9.5 111.5q0 170 -139 446q-6 14 -26 58.5t-28 63.5t-24 59t-23.5 65.5t-17 61t-13 68t-3.5 64.5q0 122 48.5 229t135.5 187q106 105 188 139.5t158 34.5q77 0 137 -33 t60 -90q0 -40 -19.5 -67t-58.5 -27q-25 0 -43 15.5t-29 38t-23.5 45t-33.5 38t-51 15.5q-57 0 -95.5 -38.5t-53.5 -92t-15 -117.5q0 -74 23 -162t47.5 -148.5t64.5 -146.5q47 -101 69.5 -152.5t46.5 -140.5t24 -164q0 -247 -179 -436q-77 -84 -184 -138t-213 -54 q-40 0 -84 11t-81.5 40.5t-37.5 71.5zM395 911q0 -73 22.5 -155.5t47 -137.5t67.5 -141q1 -3 15.5 -35t18.5 -41l18 -40.5t19 -45t16.5 -43.5t17 -47t13 -43.5t11 -45.5t6.5 -40.5t3 -40.5q0 -133 -70 -264l4 -4q178 170 178 414q0 28 -4 58t-7.5 53t-15 58t-16.5 51t-22 56 t-21 50t-24.5 54.5t-22.5 49.5q-7 15 -32.5 68.5t-33 71t-25 61.5t-24.5 70.5t-15 66t-11 78.5q0 97 63 237l-4 4q-77 -72 -124.5 -171.5t-47.5 -205.5z" />
<glyph unicode="&#xa8;" horiz-adv-x="569" d="M131 1249q0 43 28.5 72t69.5 29q43 0 73 -29t30 -72q0 -41 -30 -70.5t-73 -29.5q-41 0 -69.5 29.5t-28.5 70.5zM541 1249q0 43 28.5 72t69.5 29q43 0 72.5 -29t29.5 -72q0 -41 -29.5 -70.5t-72.5 -29.5q-41 0 -69.5 29.5t-28.5 70.5z" />
<glyph unicode="&#xa9;" horiz-adv-x="1638" d="M74 709q0 153 58.5 292t157.5 239.5t237.5 160t291.5 59.5q205 0 377 -100.5t270.5 -273t98.5 -377.5q0 -150 -58.5 -286.5t-157.5 -236t-237.5 -158.5t-292.5 -59q-153 0 -291.5 59t-237.5 158.5t-157.5 236t-58.5 286.5zM195 709q0 -168 82.5 -316t227 -237.5 t314.5 -89.5q171 0 315.5 89.5t227 237.5t82.5 316q0 174 -82 324.5t-226.5 240.5t-316.5 90q-171 0 -315.5 -90.5t-226.5 -241t-82 -323.5zM397 733q0 56 17.5 113t56 112t93.5 97.5t136.5 69t178.5 26.5q24 0 44.5 -1t41 -4t32 -4.5t32 -7t25.5 -6.5t28 -8.5t24 -7.5 q45 -14 45 -45v-152h-41q-4 36 -18.5 68.5t-41.5 62t-73 47t-105 17.5q-154 0 -232.5 -101.5t-78.5 -267.5q0 -181 79.5 -289t244.5 -108q189 0 266 188h37l-35 -151q-1 -12 -9 -20t-17.5 -11.5t-30.5 -9.5q-114 -37 -232 -37q-99 0 -181.5 24.5t-147.5 74.5t-101.5 134.5 t-36.5 196.5z" />
<glyph unicode="&#xaa;" horiz-adv-x="665" d="M115 985q0 65 44 147t108.5 150t144 115t143.5 47q51 0 84 -41q2 4 11 23t17 26.5t21 7.5h17.5t12 -1t8.5 -3t1 -6l-135 -436q-6 -18 -6 -25q0 -12 16 -12q18 0 35 10t38 29.5t27 23.5l21 -16q-7 -7 -41.5 -44t-54.5 -56t-54 -38.5t-63 -19.5q-16 0 -30.5 10.5 t-14.5 24.5q0 22 10.5 56t29 82t23.5 63l-6 4q-10 -12 -40 -51t-54 -65.5t-59.5 -58t-77 -48.5t-86.5 -17q-44 0 -67 31t-23 88zM223 1040q0 -23 16.5 -43t51.5 -20q61 -1 131.5 63t116 146t45.5 137q0 23 -19.5 39t-46.5 16q-72 0 -142.5 -59.5t-111.5 -138t-41 -140.5z " />
<glyph unicode="&#xab;" d="M205 500l434 362l31 -28l-289 -334l170 -342l-35 -21zM532 500l435 362l30 -28l-288 -334l170 -342l-35 -21z" />
<glyph unicode="&#xac;" d="M117 590v135h905v-569h-135v434h-770z" />
<glyph unicode="&#xad;" horiz-adv-x="681" d="M80 422l37 135h483l-33 -135h-487z" />
<glyph unicode="&#xae;" horiz-adv-x="1638" d="M74 709q0 153 58.5 292t157.5 239.5t237.5 160t291.5 59.5q205 0 377 -100.5t270.5 -273t98.5 -377.5q0 -150 -58.5 -286.5t-157.5 -236t-237.5 -158.5t-292.5 -59q-153 0 -291.5 59t-237.5 158.5t-157.5 236t-58.5 286.5zM195 709q0 -168 82.5 -316t227 -237.5 t314.5 -89.5q171 0 315.5 89.5t227 237.5t82.5 316q0 174 -82 324.5t-226.5 240.5t-316.5 90q-171 0 -315.5 -90.5t-226.5 -241t-82 -323.5zM469 326v28q78 10 91 18q18 13 18 50v565v42t-4.5 26.5t-7.5 18.5t-19.5 9t-28.5 7t-45 4v32h381q107 0 179.5 -50.5t72.5 -147.5 q0 -81 -48.5 -142t-127.5 -86l123 -172q96 -131 164 -186v-16h-138q-20 0 -40 16t-43.5 51t-45.5 73t-59 100t-72 114h-106v-258q0 -40 16.5 -49t91.5 -19v-28h-352zM713 721h96q73 0 109 52.5t36 144.5q0 89 -41 128t-108 39h-92v-364z" />
<glyph unicode="&#xaf;" horiz-adv-x="569" d="M178 1200l17 96h530l-16 -96h-531z" />
<glyph unicode="&#xb0;" horiz-adv-x="819" d="M209 1151q0 123 85 208t208 85t208 -85t85 -208t-85 -208t-208 -85t-208 85t-85 208zM330 1151q0 -85 53 -133.5t119 -48.5t119 48.5t53 133.5t-53 133.5t-119 48.5t-119 -48.5t-53 -133.5z" />
<glyph unicode="&#xb1;" d="M117 0v135h905v-135h-905zM117 477v135h385v226h135v-226h385v-135h-385v-225h-135v225h-385z" />
<glyph unicode="&#xb2;" horiz-adv-x="739" d="M70 590q0 4 1 16t1 21q2 8 12 18l176 152q277 244 277 407q0 67 -37.5 111.5t-104.5 44.5q-26 0 -48 -4t-44.5 -16t-33.5 -18.5t-38 -26.5t-34 -25l-21 28q48 46 80.5 72.5t85.5 50t109 23.5q101 0 161 -51.5t60 -141.5q0 -54 -25 -111.5t-61.5 -104t-92 -100.5 t-100.5 -90l-105 -84t-89 -73h413l43 72l29 -8l-51 -174q-88 2 -266 2q-189 0 -283 -2q-14 0 -14 12z" />
<glyph unicode="&#xb3;" horiz-adv-x="739" d="M63 680l56 16q44 -96 151 -96q91 0 157.5 71.5t66.5 159.5q0 94 -58 141t-149 36l6 41q50 2 105 24t97.5 65.5t41.5 96.5q2 62 -32 102.5t-99 40.5q-15 0 -28 -2t-26.5 -6.5t-22.5 -8t-23 -12.5t-20 -13t-22 -15.5t-22 -15.5l-23 22q70 61 123.5 89t126.5 28 q87 0 145 -44t58 -118q0 -40 -15 -74.5t-37.5 -58.5t-56.5 -45.5t-64 -35t-69 -26.5v-4q100 -11 157.5 -59.5t57.5 -134.5q0 -79 -54 -145.5t-136.5 -103t-169.5 -36.5q-68 0 -112 9.5t-95 41.5z" />
<glyph unicode="&#xb4;" horiz-adv-x="569" d="M303 1118l311 303q6 4 17.5 13t17.5 13.5t15.5 8.5t19.5 4q25 0 45.5 -20t20.5 -47q0 -18 -15.5 -36t-25.5 -24.5t-31 -19.5l-236 -154q-59 -41 -86 -41h-53z" />
<glyph unicode="&#xb5;" d="M-63 -401q0 45 18 120t37.5 135.5t55 164.5t50.5 149l174 528l8 28q1 9 1 17q0 31 -27 31q-21 0 -47.5 -17t-44 -33.5t-45 -46.5t-33.5 -36l-33 35l70 71q42 42 69 67t68.5 58t79.5 49.5t72 16.5q31 0 49 -17.5t18 -48.5q0 -36 -26 -106l-185 -551q-4 -20 -4 -29 q0 -20 35 -20q69 0 206 150t249.5 317t140.5 241q12 32 27 48t43 16q12 0 26.5 -7.5t23 -13.5t24.5 -21t18 -17l-224 -668q-6 -15 -6 -29q0 -28 31 -28q24 0 56 22t74 61t48 44l29 -29q-3 -3 -32.5 -36t-39 -43t-39 -39.5t-45.5 -42t-44.5 -34t-49.5 -30.5t-48 -17t-52 -8 q-36 0 -56 19t-20 53q0 48 39 151l133 357h-4q-20 -22 -72 -85t-100.5 -121t-115.5 -129t-125.5 -122.5t-121 -87t-110.5 -35.5q-13 -64 -27 -184.5t-20 -155.5q0 -2 -2 -14.5t-3 -17t-4 -16.5t-5.5 -17.5t-7 -15.5t-10 -15t-13.5 -12t-17 -10.5t-21 -6t-26 -2.5 q-32 0 -49.5 19t-17.5 47z" />
<glyph unicode="&#xb6;" d="M90 -365l10 41q12 2 36 5t34 4t28.5 5t27 8.5t21.5 12.5t19.5 18t13.5 24.5t11 33.5l160 772q-160 4 -240 90.5t-80 229.5q0 142 60.5 267t176 204.5t259.5 79.5h633l-9 -41q-109 -14 -135 -26q-37 -17 -52 -69q-2 -11 -5 -24l-309 -1481q-5 -20 -5 -41q0 -36 30 -48 t122 -24l-10 -41h-303l356 1729h-190l-357 -1729h-303zM283 895q-3 -119 51 -179.5t137 -60.5l141 709h-14q-66 0 -119.5 -31.5t-87.5 -80t-58.5 -113t-35.5 -124.5t-14 -120z" />
<glyph unicode="&#xb7;" horiz-adv-x="569" d="M150 604q0 57 39.5 96t95.5 39q55 0 95 -39.5t40 -95.5q0 -53 -40 -94t-93 -41q-57 0 -97 39.5t-40 95.5z" />
<glyph unicode="&#xb8;" horiz-adv-x="569" d="M-37 -393l37 53q78 -31 115 -31q53 0 95 23t42 72q0 39 -27 62.5t-65 23.5q-42 0 -80 -19l-14 21l129 190h73l-90 -133l4 -4q17 10 64 10q62 0 101.5 -35t39.5 -100q0 -48 -21 -83.5t-57 -55t-76.5 -28.5t-85.5 -9q-93 0 -184 43z" />
<glyph unicode="&#xb9;" horiz-adv-x="739" d="M145 578l9 38q33 2 94 2q32 0 46 11.5t17 36.5l138 667l-218 -100l-20 31l360 180l25 -6l-141 -729q-11 -43 -11 -64q0 -27 56 -27q18 0 53 -1t53 -1l-8 -38q-43 0 -118 1t-111 1q-148 0 -224 -2z" />
<glyph unicode="&#xba;" horiz-adv-x="739" d="M143 1112q0 133 108 232.5t257 99.5q119 0 190.5 -71t71.5 -179q0 -129 -105 -228.5t-251 -99.5q-125 0 -198 67.5t-73 178.5zM264 1069q0 -69 35.5 -115.5t112.5 -46.5q58 0 105.5 34.5t75 87t42 107.5t14.5 103q0 67 -35 115.5t-108 48.5q-49 0 -91 -23t-69 -58.5 t-46 -81t-27.5 -89t-8.5 -82.5z" />
<glyph unicode="&#xbb;" d="M141 166l289 334l-170 342l35 20l311 -362l-434 -363zM469 166l289 334l-170 342l35 20l311 -362l-434 -363z" />
<glyph unicode="&#xbc;" horiz-adv-x="1708" d="M164 578l8 38q33 2 94 2q32 0 46.5 11.5t17.5 36.5l137 667l-217 -100l-21 31l361 180l24 -6l-141 -729q-10 -39 -10 -64q0 -27 55 -27q18 0 54 -1t53 -1l-9 -38q-43 0 -118 1t-111 1q-147 0 -223 -2zM344 -47l918 1507h96l-916 -1507h-98zM889 285l6 59l553 522h70 l-101 -485h127l-16 -96h-127l-55 -285h-127l55 285h-385zM997 381h293l74 336h-4z" />
<glyph unicode="&#xbd;" horiz-adv-x="1708" d="M178 578l8 38q33 2 95 2q32 0 46 11.5t17 36.5l137 667l-217 -100l-20 31l360 180l12 -6l-141 -729q-10 -39 -10 -64q0 -27 55 -27q18 0 54 -1t53 -1l-9 -38q-36 0 -108 1t-109 1q-147 0 -223 -2zM344 -47l918 1507h96l-916 -1507h-98zM918 12q0 4 1 16t1 21q2 9 12 19 l176 151q276 244 276 408q0 67 -37 111t-104 44q-26 0 -48 -4t-45.5 -16.5t-33.5 -18.5t-38 -26.5t-34 -24.5l-20 29q48 46 80 72.5t85 49.5t109 23q101 0 161.5 -51t60.5 -141q0 -54 -25 -111.5t-61.5 -104t-92 -100.5t-100.5 -90l-105 -84t-89 -73h413l43 71l29 -8 l-51 -174q-88 2 -267 2q-188 0 -282 -2q-14 0 -14 12z" />
<glyph unicode="&#xbe;" horiz-adv-x="1708" d="M133 680l55 16q44 -96 152 -96q91 0 157 71.5t66 159.5q0 94 -58 141t-149 36l6 41q50 2 105 24t97.5 65.5t41.5 96.5q2 62 -32 102.5t-99 40.5q-15 0 -28 -2t-26.5 -6.5t-22.5 -8t-23 -12.5t-20 -13t-22 -15.5t-22 -15.5l-22 22q70 61 123.5 89t126.5 28 q87 0 144.5 -43.5t57.5 -118.5q0 -50 -20.5 -90t-58.5 -68.5t-75.5 -46.5t-86.5 -35v-4q100 -11 157.5 -59.5t57.5 -134.5q0 -79 -54 -145.5t-137 -103t-170 -36.5q-68 0 -112 9.5t-95 41.5zM406 -47l917 1507h96l-915 -1507h-98zM889 285l6 59l553 522h70l-101 -485h127 l-16 -96h-127l-55 -285h-127l55 285h-385zM997 381h293l74 336h-4z" />
<glyph unicode="&#xbf;" horiz-adv-x="909" d="M80 -154q0 75 25.5 131t64 87t91.5 55.5t101 36.5t101 28t82 33q34 20 55 56t21 75q0 62 -52 94.5t-100 32.5q-19 0 -40.5 -5t-29.5 -5q-45 0 -45 51q0 35 17.5 58.5t50.5 23.5q70 0 156 -76q42 -37 84.5 -120.5t42.5 -135.5q0 -75 -30 -127t-77.5 -79t-105.5 -45 t-115.5 -33.5t-105 -35.5t-77.5 -59.5t-30 -97.5q0 -67 36.5 -104t104.5 -37q39 0 93 15t77 15q29 0 46.5 -18.5t17.5 -46.5q0 -80 -127 -80q-130 0 -231 92t-101 221zM465 860q0 55 39.5 94t95.5 39q55 0 95 -39t40 -94q0 -54 -40.5 -95.5t-94.5 -41.5t-94.5 41t-40.5 96z " />
<glyph unicode="&#xc0;" horiz-adv-x="1478" d="M4 0l10 53q67 -1 108.5 34t76.5 103l704 1248q47 11 74 22l12 -8l225 -1272q9 -68 44 -99.5t104 -27.5l-10 -53q-43 0 -129 2t-129 2q-74 0 -222 -4l11 53q23 -3 49.5 -0.5t49 8t35.5 23.5t9 47l-61 406h-480l-168 -349q-22 -49 -22 -73q0 -62 88 -62h61l-10 -53 q-40 0 -120.5 2t-120.5 2q-63 0 -189 -4zM530 621h424l-90 610h-4zM690 1786q0 22 19.5 43.5t42.5 21.5q26 0 38 -5.5t29 -26.5l248 -310h-43q-12 0 -35 17l-239 180q-60 49 -60 80z" />
<glyph unicode="&#xc1;" horiz-adv-x="1478" d="M4 0l10 53q67 -1 108.5 34t76.5 103l704 1248q47 11 74 22l12 -8l225 -1272q9 -68 44 -99.5t104 -27.5l-10 -53q-43 0 -129 2t-129 2q-74 0 -222 -4l11 53q23 -3 49.5 -0.5t49 8t35.5 23.5t9 47l-61 406h-480l-168 -349q-22 -49 -22 -73q0 -62 88 -62h61l-10 -53 q-40 0 -120.5 2t-120.5 2q-63 0 -189 -4zM530 621h424l-90 610h-4zM813 1509l311 303q6 4 17.5 13t17.5 13.5t15.5 8.5t19.5 4q25 0 45.5 -20t20.5 -47q0 -18 -15.5 -36t-25.5 -24.5t-31 -19.5l-236 -154q-59 -41 -86 -41h-53z" />
<glyph unicode="&#xc2;" horiz-adv-x="1478" d="M4 0l10 53q67 -1 108.5 34t76.5 103l704 1248q47 11 74 22l12 -8l225 -1272q9 -68 44 -99.5t104 -27.5l-10 -53q-43 0 -129 2t-129 2q-74 0 -222 -4l11 53q23 -3 49.5 -0.5t49 8t35.5 23.5t9 47l-61 406h-480l-168 -349q-22 -49 -22 -73q0 -62 88 -62h61l-10 -53 q-40 0 -120.5 2t-120.5 2q-63 0 -189 -4zM530 621h424l-90 610h-4zM627 1509l329 342h78l180 -342h-67l-168 220l-277 -220h-75z" />
<glyph unicode="&#xc3;" horiz-adv-x="1478" d="M4 0l10 53q67 -1 108.5 34t76.5 103l704 1248q47 11 74 22l12 -8l225 -1272q9 -68 44 -99.5t104 -27.5l-10 -53q-43 0 -129 2t-129 2q-74 0 -222 -4l11 53q23 -3 49.5 -0.5t49 8t35.5 23.5t9 47l-61 406h-480l-168 -349q-22 -49 -22 -73q0 -62 88 -62h61l-10 -53 q-40 0 -120.5 2t-120.5 2q-63 0 -189 -4zM530 621h424l-90 610h-4zM616 1554q22 85 80 141t142 56q47 0 143 -45t127 -45q45 0 71.5 26t49.5 74h53q-11 -77 -74.5 -141t-140.5 -64q-41 0 -139 46q-8 4 -34 17.5t-37.5 18.5t-30 11t-31.5 6q-48 0 -73 -23.5t-50 -77.5h-56z " />
<glyph unicode="&#xc4;" horiz-adv-x="1478" d="M4 0l10 53q67 -1 108.5 34t76.5 103l704 1248q47 11 74 22l12 -8l225 -1272q9 -68 44 -99.5t104 -27.5l-10 -53q-43 0 -129 2t-129 2q-74 0 -222 -4l11 53q23 -3 49.5 -0.5t49 8t35.5 23.5t9 47l-61 406h-480l-168 -349q-22 -49 -22 -73q0 -62 88 -62h61l-10 -53 q-40 0 -120.5 2t-120.5 2q-63 0 -189 -4zM530 621h424l-90 610h-4zM641 1640q0 43 28.5 72t69.5 29q43 0 73 -29t30 -72q0 -41 -30 -70.5t-73 -29.5q-41 0 -69.5 29.5t-28.5 70.5zM1051 1640q0 43 28.5 72t69.5 29q43 0 72.5 -29t29.5 -72q0 -41 -29.5 -70.5t-72.5 -29.5 q-41 0 -69.5 29.5t-28.5 70.5z" />
<glyph unicode="&#xc5;" horiz-adv-x="1478" d="M4 0l10 53q67 -1 108.5 34t76.5 103l704 1248q47 11 74 22l12 -8l225 -1272q9 -68 44 -99.5t104 -27.5l-10 -53q-43 0 -129 2t-129 2q-74 0 -222 -4l11 53q23 -3 49.5 -0.5t49 8t35.5 23.5t9 47l-61 406h-480l-168 -349q-22 -49 -22 -73q0 -62 88 -62h61l-10 -53 q-40 0 -120.5 2t-120.5 2q-63 0 -189 -4zM530 621h424l-90 610h-4zM750 1698q0 83 58.5 141.5t141.5 58.5t142 -58.5t59 -141.5t-59 -142t-142 -59t-141.5 59t-58.5 142zM815 1698q0 -56 39.5 -95.5t95.5 -39.5t95.5 39.5t39.5 95.5t-39.5 95.5t-95.5 39.5t-95.5 -39.5 t-39.5 -95.5z" />
<glyph unicode="&#xc6;" horiz-adv-x="2048" d="M-2 0l10 53h19q47 0 91 34.5t115 137.5l730 1057q18 27 18 49q0 26 -32 35.5t-105 9.5h-29l10 54q271 -8 549 -5q83 1 249 2.5t249 2.5l-43 -285h-41v90q0 34 -9.5 54.5t-32.5 36.5t-70.5 23.5t-113.5 11t-171 3.5h-82l-101 -582h174q80 -2 125.5 16.5t61.5 75.5l26 99 h47l-83 -465h-46l7 80q6 65 -35.5 87.5t-136.5 22.5h-154l-68 -458q-12 -81 -12 -95q0 -42 61.5 -60.5t137.5 -18.5h108q68 0 119 11.5t96.5 40t77 82t49.5 132.5h54l-84 -332q-170 4 -510 4q-347 0 -521 -4l15 53h33q105 4 138 44.5t58 183.5l72 417h-367l-352 -551 q-18 -24 -18 -47q0 -47 100 -47h31l-11 -53q-35 0 -105.5 2t-105.5 2q-66 0 -192 -4zM709 782h321l94 553q4 25 -6 25q-5 0 -9 -3t-6 -6t-5.5 -9t-5.5 -9z" />
<glyph unicode="&#xc7;" horiz-adv-x="1478" d="M180 657q0 163 65 312t174 256.5t257.5 171t310.5 63.5q104 0 182.5 -15t112.5 -33t64.5 -33t50.5 -15q9 0 19 4.5t15.5 9.5t15.5 14.5t13 12.5l25 -14l-68 -361l-41 12q7 77 -9.5 138.5t-70.5 115.5q-99 99 -268 99q-121 0 -226 -44.5t-178.5 -118t-126.5 -169.5 t-78.5 -199.5t-25.5 -206.5q0 -135 29.5 -247.5t86.5 -196.5t148 -131t207 -47q185 0 299 94t193 279l45 -11l-82 -348q-25 17 -55 17q-13 0 -35.5 -8t-55.5 -22t-49 -20q-72 -27 -127 -37t-135 -10q-39 0 -57 2l-70 -102l4 -4q17 10 64 10q61 0 101 -35t40 -100 q0 -48 -21 -83.5t-56.5 -55t-76 -28.5t-85.5 -9q-94 0 -185 43l37 53q77 -31 115 -31q53 0 95 23t42 72q0 39 -27 62.5t-65 23.5q-42 0 -80 -19l-14 21l112 168q-250 39 -402.5 221t-152.5 456z" />
<glyph unicode="&#xc8;" horiz-adv-x="1366" d="M39 0l10 53h29q47 -1 77.5 7.5t47.5 29.5t24.5 42t14.5 58l192 1055q4 18 4 51q0 30 -32.5 55t-100.5 25h-41l10 54q62 -1 233.5 -5t264.5 -4t263.5 4t232.5 5l-23 -285h-41v49q0 44 -11 74t-32 49.5t-61 29.5t-88 13.5t-123 3.5h-250l-107 -582h267q82 -2 132 17t66 75 l27 99h35l-84 -465h-33l6 80q6 65 -37 87.5t-147 22.5h-244l-80 -456q-10 -68 -10 -78q0 -46 25.5 -72t91.5 -26h321q59 0 101 5t76 21.5t55.5 33t45 54.5t38.5 70t41 94h47l-92 -344q-29 0 -292 2t-399 2q-150 0 -450 -4zM580 1786q0 22 19 43.5t42 21.5q26 0 38.5 -6 t29.5 -26l247 -310h-43q-11 0 -34 17l-240 180q-59 48 -59 80z" />
<glyph unicode="&#xc9;" horiz-adv-x="1366" d="M39 0l10 53h29q47 -1 77.5 7.5t47.5 29.5t24.5 42t14.5 58l192 1055q4 18 4 51q0 30 -32.5 55t-100.5 25h-41l10 54q62 -1 233.5 -5t264.5 -4t263.5 4t232.5 5l-23 -285h-41v49q0 44 -11 74t-32 49.5t-61 29.5t-88 13.5t-123 3.5h-250l-107 -582h267q82 -2 132 17t66 75 l27 99h35l-84 -465h-33l6 80q6 65 -37 87.5t-147 22.5h-244l-80 -456q-10 -68 -10 -78q0 -46 25.5 -72t91.5 -26h321q59 0 101 5t76 21.5t55.5 33t45 54.5t38.5 70t41 94h47l-92 -344q-29 0 -292 2t-399 2q-150 0 -450 -4zM702 1509l312 303q6 4 17 13t17 13.5t15.5 8.5 t19.5 4q25 0 45.5 -20t20.5 -47q0 -18 -15.5 -36t-25.5 -24.5t-31 -19.5l-235 -154q-59 -41 -86 -41h-54z" />
<glyph unicode="&#xca;" horiz-adv-x="1366" d="M39 0l10 53h29q47 -1 77.5 7.5t47.5 29.5t24.5 42t14.5 58l192 1055q4 18 4 51q0 30 -32.5 55t-100.5 25h-41l10 54q62 -1 233.5 -5t264.5 -4t263.5 4t232.5 5l-23 -285h-41v49q0 44 -11 74t-32 49.5t-61 29.5t-88 13.5t-123 3.5h-250l-107 -582h267q82 -2 132 17t66 75 l27 99h35l-84 -465h-33l6 80q6 65 -37 87.5t-147 22.5h-244l-80 -456q-10 -68 -10 -78q0 -46 25.5 -72t91.5 -26h321q59 0 101 5t76 21.5t55.5 33t45 54.5t38.5 70t41 94h47l-92 -344q-29 0 -292 2t-399 2q-150 0 -450 -4zM516 1509l330 342h78l180 -342h-68l-168 220 l-276 -220h-76z" />
<glyph unicode="&#xcb;" horiz-adv-x="1366" d="M39 0l10 53h29q47 -1 77.5 7.5t47.5 29.5t24.5 42t14.5 58l192 1055q4 18 4 51q0 30 -32.5 55t-100.5 25h-41l10 54q62 -1 233.5 -5t264.5 -4t263.5 4t232.5 5l-23 -285h-41v49q0 44 -11 74t-32 49.5t-61 29.5t-88 13.5t-123 3.5h-250l-107 -582h267q82 -2 132 17t66 75 l27 99h35l-84 -465h-33l6 80q6 65 -37 87.5t-147 22.5h-244l-80 -456q-10 -68 -10 -78q0 -46 25.5 -72t91.5 -26h321q59 0 101 5t76 21.5t55.5 33t45 54.5t38.5 70t41 94h47l-92 -344q-29 0 -292 2t-399 2q-150 0 -450 -4zM530 1640q0 43 29 72t70 29q43 0 72.5 -29 t29.5 -72q0 -41 -29.5 -70.5t-72.5 -29.5q-41 0 -70 29.5t-29 70.5zM940 1640q0 43 28.5 72t69.5 29q43 0 73 -29t30 -72q0 -41 -30 -70.5t-73 -29.5q-41 0 -69.5 29.5t-28.5 70.5z" />
<glyph unicode="&#xcc;" horiz-adv-x="796" d="M47 0l10 53h35q30 0 49.5 2t35.5 9.5t25 16t18 27.5t14.5 37.5t13.5 53.5l198 1083q5 27 -2 46t-17.5 28.5t-33 14t-35 5t-37.5 0.5h-12h-37l11 54q127 -5 301 -5q38 0 118 2.5t121 2.5l-10 -54h-39q-1 0 -9.5 0.5t-14.5 0t-17.5 -1t-20 -3t-20 -6.5t-20 -11t-17.5 -15.5 t-15 -22t-9 -29.5l-201 -1091q-17 -90 10 -117t125 -27h31l-10 -53q-45 0 -136.5 2t-136.5 2q-90 0 -266 -4zM346 1786q0 22 19.5 43.5t42.5 21.5q26 0 38 -5.5t29 -26.5l248 -310h-43q-12 0 -35 17l-239 180q-60 49 -60 80z" />
<glyph unicode="&#xcd;" horiz-adv-x="796" d="M47 0l10 53h35q30 0 49.5 2t35.5 9.5t25 16t18 27.5t14.5 37.5t13.5 53.5l198 1083q5 27 -2 46t-17.5 28.5t-33 14t-35 5t-37.5 0.5h-12h-37l11 54q127 -5 301 -5q38 0 118 2.5t121 2.5l-10 -54h-39q-1 0 -9.5 0.5t-14.5 0t-17.5 -1t-20 -3t-20 -6.5t-20 -11t-17.5 -15.5 t-15 -22t-9 -29.5l-201 -1091q-17 -90 10 -117t125 -27h31l-10 -53q-45 0 -136.5 2t-136.5 2q-90 0 -266 -4zM469 1509l311 303q6 4 17.5 13t17.5 13.5t15.5 8.5t19.5 4q25 0 45 -20t20 -47q0 -18 -15 -36t-25.5 -25t-30.5 -19l-236 -154q-59 -41 -86 -41h-53z" />
<glyph unicode="&#xce;" horiz-adv-x="796" d="M47 0l10 53h35q30 0 49.5 2t35.5 9.5t25 16t18 27.5t14.5 37.5t13.5 53.5l198 1083q5 27 -2 46t-17.5 28.5t-33 14t-35 5t-37.5 0.5h-12h-37l11 54q127 -5 301 -5q38 0 118 2.5t121 2.5l-10 -54h-39q-1 0 -9.5 0.5t-14.5 0t-17.5 -1t-20 -3t-20 -6.5t-20 -11t-17.5 -15.5 t-15 -22t-9 -29.5l-201 -1091q-17 -90 10 -117t125 -27h31l-10 -53q-45 0 -136.5 2t-136.5 2q-90 0 -266 -4zM283 1509l329 342h78l180 -342h-67l-168 220l-277 -220h-75z" />
<glyph unicode="&#xcf;" horiz-adv-x="796" d="M47 0l10 53h35q30 0 49.5 2t35.5 9.5t25 16t18 27.5t14.5 37.5t13.5 53.5l198 1083q5 27 -2 46t-17.5 28.5t-33 14t-35 5t-37.5 0.5h-12h-37l11 54q127 -5 301 -5q38 0 118 2.5t121 2.5l-10 -54h-39q-1 0 -9.5 0.5t-14.5 0t-17.5 -1t-20 -3t-20 -6.5t-20 -11t-17.5 -15.5 t-15 -22t-9 -29.5l-201 -1091q-17 -90 10 -117t125 -27h31l-10 -53q-45 0 -136.5 2t-136.5 2q-90 0 -266 -4zM297 1640q0 43 28.5 72t69.5 29q43 0 73 -29t30 -72q0 -41 -30 -70.5t-73 -29.5q-41 0 -69.5 29.5t-28.5 70.5zM707 1640q0 43 28.5 72t69.5 29q43 0 72.5 -29 t29.5 -72q0 -41 -29.5 -70.5t-72.5 -29.5q-41 0 -69.5 29.5t-28.5 70.5z" />
<glyph unicode="&#xd0;" horiz-adv-x="1705" d="M47 0l10 53h45q74 3 103.5 30t44.5 114l92 501h-186l14 84h188l64 346q20 92 20 162q0 46 -32.5 62.5t-110.5 23.5h-39l10 54q144 -7 244 -7q43 0 135 3.5t170 3.5q106 0 193 -13.5t150 -38.5t102 -48t82 -56q108 -82 169.5 -206.5t61.5 -285.5q0 -235 -113 -414.5 t-303.5 -273.5t-425.5 -94q-45 0 -136 1t-136 1q-69 0 -208 -1t-208 -1zM432 193q-6 -29 0.5 -51t27 -35.5t43 -22t59 -12.5t64.5 -5t70 -1q156 0 285.5 59.5t215 161t132.5 236.5t47 288q0 79 -19 151t-48 124t-68 95t-75 69.5t-72 43.5q-84 40 -142.5 55t-158.5 15 q-51 0 -144 -6l-106 -576h430l-15 -84h-432z" />
<glyph unicode="&#xd1;" horiz-adv-x="1705" d="M39 0l8 53h29q39 0 61.5 4.5t46 19.5t38.5 45.5t29 81t28 128.5l155 885q1 6 -14 30.5t-42.5 53.5t-53.5 40q-31 16 -65 25.5t-50 9.5h-19l9 54q107 -7 186 -7q22 0 68 3.5t69 3.5l783 -1162l145 854q14 63 14 138q0 72 -37.5 94t-111.5 22h-39l8 54q133 -7 227 -7 q40 0 121 3.5t121 3.5l-8 -54h-31q-20 0 -37 -4t-30 -8.5t-24.5 -16l-19 -19t-15 -25.5t-11.5 -27.5t-9.5 -33t-7.5 -33.5t-7 -38t-7 -38l-176 -957q33 -53 66.5 -88t79.5 -47l-11 -41q-82 4 -121 4q-40 0 -122 -4l-760 1128l-135 -827q-21 -134 -21 -154q0 -94 131 -94h66 l-11 -53q-41 0 -123.5 2t-123.5 2q-82 0 -246 -4zM700 1554q22 85 80 141t142 56q47 0 143 -45t127 -45q45 0 71.5 26t49.5 74h53q-11 -77 -74.5 -141t-140.5 -64q-41 0 -139 46q-8 4 -34 17.5t-37.5 18.5t-30 11t-31.5 6q-48 0 -73 -23.5t-50 -77.5h-56z" />
<glyph unicode="&#xd2;" horiz-adv-x="1820" d="M180 645q0 167 63.5 318t172 260t258.5 173t315 64q138 0 265.5 -47t224.5 -129.5t155 -205t58 -263.5q0 -173 -62 -329t-169.5 -269.5t-260.5 -180.5t-328 -67q-311 0 -501.5 183t-190.5 493zM381 602q0 -124 28.5 -225t87.5 -178.5t157 -120.5t229 -43q116 0 217 48 t171.5 127t121 180.5t74.5 208.5t24 212q0 118 -30 221t-89 185.5t-157 130t-224 47.5q-123 0 -226 -47.5t-172.5 -126t-118.5 -182t-71 -214t-22 -223.5zM858 1786q0 22 19.5 43.5t42.5 21.5q26 0 38 -5.5t29 -26.5l248 -310h-43q-12 0 -35 17l-239 180q-60 49 -60 80z" />
<glyph unicode="&#xd3;" horiz-adv-x="1820" d="M180 645q0 167 63.5 318t172 260t258.5 173t315 64q138 0 265.5 -47t224.5 -129.5t155 -205t58 -263.5q0 -173 -62 -329t-169.5 -269.5t-260.5 -180.5t-328 -67q-311 0 -501.5 183t-190.5 493zM381 602q0 -124 28.5 -225t87.5 -178.5t157 -120.5t229 -43q116 0 217 48 t171.5 127t121 180.5t74.5 208.5t24 212q0 118 -30 221t-89 185.5t-157 130t-224 47.5q-123 0 -226 -47.5t-172.5 -126t-118.5 -182t-71 -214t-22 -223.5zM981 1509l311 303q6 4 17.5 13t17.5 13.5t15.5 8.5t19.5 4q25 0 45 -20t20 -47q0 -18 -15 -36t-25.5 -25t-30.5 -19 l-236 -154q-59 -41 -86 -41h-53z" />
<glyph unicode="&#xd4;" horiz-adv-x="1820" d="M180 645q0 167 63.5 318t172 260t258.5 173t315 64q138 0 265.5 -47t224.5 -129.5t155 -205t58 -263.5q0 -173 -62 -329t-169.5 -269.5t-260.5 -180.5t-328 -67q-311 0 -501.5 183t-190.5 493zM381 602q0 -124 28.5 -225t87.5 -178.5t157 -120.5t229 -43q116 0 217 48 t171.5 127t121 180.5t74.5 208.5t24 212q0 118 -30 221t-89 185.5t-157 130t-224 47.5q-123 0 -226 -47.5t-172.5 -126t-118.5 -182t-71 -214t-22 -223.5zM795 1509l329 342h78l180 -342h-67l-168 220l-277 -220h-75z" />
<glyph unicode="&#xd5;" horiz-adv-x="1820" d="M180 645q0 167 63.5 318t172 260t258.5 173t315 64q138 0 265.5 -47t224.5 -129.5t155 -205t58 -263.5q0 -173 -62 -329t-169.5 -269.5t-260.5 -180.5t-328 -67q-311 0 -501.5 183t-190.5 493zM381 602q0 -124 28.5 -225t87.5 -178.5t157 -120.5t229 -43q116 0 217 48 t171.5 127t121 180.5t74.5 208.5t24 212q0 118 -30 221t-89 185.5t-157 130t-224 47.5q-123 0 -226 -47.5t-172.5 -126t-118.5 -182t-71 -214t-22 -223.5zM748 1554q22 85 80 141t141 56q47 0 143 -45t127 -45q45 0 71.5 26t49.5 74h53q-11 -77 -74.5 -141t-140.5 -64 q-41 0 -139 46q-8 4 -34 17.5t-37.5 18.5t-30 11t-31.5 6q-48 0 -73 -23.5t-50 -77.5h-55z" />
<glyph unicode="&#xd6;" horiz-adv-x="1820" d="M180 645q0 167 63.5 318t172 260t258.5 173t315 64q138 0 265.5 -47t224.5 -129.5t155 -205t58 -263.5q0 -173 -62 -329t-169.5 -269.5t-260.5 -180.5t-328 -67q-311 0 -501.5 183t-190.5 493zM381 602q0 -124 28.5 -225t87.5 -178.5t157 -120.5t229 -43q116 0 217 48 t171.5 127t121 180.5t74.5 208.5t24 212q0 118 -30 221t-89 185.5t-157 130t-224 47.5q-123 0 -226 -47.5t-172.5 -126t-118.5 -182t-71 -214t-22 -223.5zM809 1640q0 43 28.5 72t69.5 29q43 0 73 -29t30 -72q0 -41 -30 -70.5t-73 -29.5q-41 0 -69.5 29.5t-28.5 70.5z M1219 1640q0 43 28.5 72t69.5 29q43 0 72.5 -29t29.5 -72q0 -41 -29.5 -70.5t-72.5 -29.5q-41 0 -69.5 29.5t-28.5 70.5z" />
<glyph unicode="&#xd7;" d="M117 100l360 353l-360 358l98 94l354 -358l355 358l98 -94l-360 -358l360 -353l-96 -94l-357 354l-356 -354z" />
<glyph unicode="&#xd8;" horiz-adv-x="1820" d="M147 -16l201 194q-168 182 -168 467q0 167 63.5 318t172 260t258.5 173t315 64q138 0 266 -46.5t224 -129.5l215 211l43 -53l-209 -205q164 -178 164 -422q0 -173 -62 -329t-169.5 -269.5t-260.5 -180.5t-328 -67q-290 0 -475 162l-200 -194zM381 602q0 -193 68 -326 l940 920q-134 199 -398 199q-123 0 -226 -47.5t-172.5 -126t-118.5 -182t-71 -214t-22 -223.5zM485 217q127 -182 398 -182q116 0 217 48t171.5 127t121 180.5t74.5 208.5t24 212q0 182 -68 324z" />
<glyph unicode="&#xd9;" horiz-adv-x="1593" d="M231 1376l11 54q132 -5 321 -5q45 0 136 2.5t137 2.5l-11 -52h-47q-53 -2 -85 -20.5t-58 -74t-43 -159.5l-111 -686q-6 -44 -6 -82q0 -76 29 -136t77.5 -95.5t106.5 -53.5t121 -18q75 0 135 16.5t102 40.5t75 70.5t52 84t36.5 106.5t25.5 113t20 126l99 561q6 35 6 78 q0 66 -43 96.5t-131 30.5h-31l10 54q102 -5 252 -5q37 0 111.5 2.5t111.5 2.5l-10 -54h-26q-27 0 -49.5 -10t-38 -23t-29 -38.5t-21 -43.5t-15.5 -53t-11 -51t-8.5 -53t-6.5 -45l-90 -545q-30 -173 -62 -256t-106 -154q-138 -135 -399 -135q-72 0 -139.5 12.5t-130.5 41.5 t-109 71.5t-74 106.5t-28 143q0 101 30 266l93 531q14 86 14 127q0 32 -9 53t-20.5 32t-36 16.5t-40 6t-48.5 0.5h-39zM743 1786q0 22 19.5 43.5t42.5 21.5q26 0 38 -5.5t29 -26.5l248 -310h-43q-12 0 -35 17l-239 180q-60 49 -60 80z" />
<glyph unicode="&#xda;" horiz-adv-x="1593" d="M231 1376l11 54q132 -5 321 -5q45 0 136 2.5t137 2.5l-11 -52h-47q-53 -2 -85 -20.5t-58 -74t-43 -159.5l-111 -686q-6 -44 -6 -82q0 -76 29 -136t77.5 -95.5t106.5 -53.5t121 -18q75 0 135 16.5t102 40.5t75 70.5t52 84t36.5 106.5t25.5 113t20 126l99 561q6 35 6 78 q0 66 -43 96.5t-131 30.5h-31l10 54q102 -5 252 -5q37 0 111.5 2.5t111.5 2.5l-10 -54h-26q-27 0 -49.5 -10t-38 -23t-29 -38.5t-21 -43.5t-15.5 -53t-11 -51t-8.5 -53t-6.5 -45l-90 -545q-30 -173 -62 -256t-106 -154q-138 -135 -399 -135q-72 0 -139.5 12.5t-130.5 41.5 t-109 71.5t-74 106.5t-28 143q0 101 30 266l93 531q14 86 14 127q0 32 -9 53t-20.5 32t-36 16.5t-40 6t-48.5 0.5h-39zM866 1509l312 303q6 4 17 13t17 13.5t15.5 8.5t19.5 4q25 0 45.5 -20t20.5 -47q0 -18 -15.5 -36t-25.5 -24.5t-31 -19.5l-235 -154q-59 -41 -86 -41h-54z " />
<glyph unicode="&#xdb;" horiz-adv-x="1593" d="M231 1376l11 54q132 -5 321 -5q45 0 136 2.5t137 2.5l-11 -52h-47q-53 -2 -85 -20.5t-58 -74t-43 -159.5l-111 -686q-6 -44 -6 -82q0 -76 29 -136t77.5 -95.5t106.5 -53.5t121 -18q75 0 135 16.5t102 40.5t75 70.5t52 84t36.5 106.5t25.5 113t20 126l99 561q6 35 6 78 q0 66 -43 96.5t-131 30.5h-31l10 54q102 -5 252 -5q37 0 111.5 2.5t111.5 2.5l-10 -54h-26q-27 0 -49.5 -10t-38 -23t-29 -38.5t-21 -43.5t-15.5 -53t-11 -51t-8.5 -53t-6.5 -45l-90 -545q-30 -173 -62 -256t-106 -154q-138 -135 -399 -135q-72 0 -139.5 12.5t-130.5 41.5 t-109 71.5t-74 106.5t-28 143q0 101 30 266l93 531q14 86 14 127q0 32 -9 53t-20.5 32t-36 16.5t-40 6t-48.5 0.5h-39zM680 1509l330 342h77l181 -342h-68l-168 220l-276 -220h-76z" />
<glyph unicode="&#xdc;" horiz-adv-x="1593" d="M231 1376l11 54q132 -5 321 -5q45 0 136 2.5t137 2.5l-11 -52h-47q-53 -2 -85 -20.5t-58 -74t-43 -159.5l-111 -686q-6 -44 -6 -82q0 -76 29 -136t77.5 -95.5t106.5 -53.5t121 -18q75 0 135 16.5t102 40.5t75 70.5t52 84t36.5 106.5t25.5 113t20 126l99 561q6 35 6 78 q0 66 -43 96.5t-131 30.5h-31l10 54q102 -5 252 -5q37 0 111.5 2.5t111.5 2.5l-10 -54h-26q-27 0 -49.5 -10t-38 -23t-29 -38.5t-21 -43.5t-15.5 -53t-11 -51t-8.5 -53t-6.5 -45l-90 -545q-30 -173 -62 -256t-106 -154q-138 -135 -399 -135q-72 0 -139.5 12.5t-130.5 41.5 t-109 71.5t-74 106.5t-28 143q0 101 30 266l93 531q14 86 14 127q0 32 -9 53t-20.5 32t-36 16.5t-40 6t-48.5 0.5h-39zM705 1640q0 43 28.5 72t69.5 29q43 0 72.5 -29t29.5 -72q0 -41 -29.5 -70.5t-72.5 -29.5q-41 0 -69.5 29.5t-28.5 70.5zM1114 1640q0 43 28.5 72t69.5 29 q43 0 73 -29t30 -72q0 -41 -30 -70.5t-73 -29.5q-41 0 -69.5 29.5t-28.5 70.5z" />
<glyph unicode="&#xdd;" horiz-adv-x="1366" d="M190 1376l9 54q105 -5 252 -5q45 0 134 2.5t134 2.5l-10 -54h-74q-38 0 -61.5 -18.5t-6.5 -57.5l262 -620l373 584q27 41 27 69q0 43 -127 43h-35l8 54q103 -5 248 -5q88 0 152 5l-11 -54q-65 7 -137 -96l-20 -31l-451 -661l-76 -402q-4 -22 -4 -39.5t2 -31t9.5 -23.5 t14 -16.5t20.5 -11t23.5 -6.5t29 -3.5t30.5 -1.5h33h37l-10 -53q-52 0 -158 2t-158 2q-88 0 -264 -4l8 53h45q61 -1 92 11.5t42.5 35.5t21.5 76l78 408l-316 721q-16 35 -56.5 53t-88.5 18h-21zM754 1509l311 303q6 4 17.5 13t17.5 13.5t15.5 8.5t19.5 4q25 0 45 -20t20 -47 q0 -18 -15.5 -36t-25.5 -24.5t-31 -19.5l-235 -154q-59 -41 -86 -41h-53z" />
<glyph unicode="&#xde;" horiz-adv-x="1251" d="M47 0l10 53h43q26 2 39.5 4t32 9t29 18.5t20.5 32.5t17 51l202 1120q5 26 -4 44t-27 26.5t-41 13.5t-47.5 4.5t-46.5 -0.5h-36l10 54q240 -5 289 -5q45 0 280 5l-10 -54h-43q-30 0 -49 -3.5t-38.5 -14.5t-31 -34.5t-18.5 -61.5l-15 -91q107 7 191 7q166 0 272.5 -78.5 t106.5 -237.5q0 -101 -42.5 -183.5t-113.5 -134.5t-159.5 -80t-184.5 -28q-112 0 -205 13l-43 -234l-10 -74q0 -33 16 -53t40 -26t53.5 -9t56.5 0h37l-11 -53q-192 4 -288 4q-93 0 -281 -4zM487 510q68 -8 164 -8q63 0 119 19t104.5 59.5t77.5 112t29 167.5 q0 129 -65.5 190.5t-206.5 61.5q-16 0 -52.5 -2.5t-58.5 -3.5z" />
<glyph unicode="&#xdf;" d="M6 -467l299 1368q31 132 66 217q27 68 84 145.5t128.5 145t156 112t157.5 44.5q109 0 179.5 -65t70.5 -173q0 -34 -7 -65.5t-16 -55.5t-28 -50t-33 -42.5t-42.5 -41t-43.5 -36t-49.5 -37t-48.5 -36.5q-36 -28 -53.5 -43.5t-35.5 -46t-18 -64.5q0 -43 35 -105.5t76.5 -117 t76.5 -127.5t35 -135q0 -121 -102 -226q-132 -129 -289 -129q-55 0 -102 33t-47 86q0 68 57 107h16q33 -53 84 -84t111 -31q65 0 108 34.5t43 96.5q0 48 -26 102t-63 104.5t-74.5 101.5t-63.5 109.5t-26 112.5q0 41 20.5 78.5t53.5 69t73 63t80 65t73 69.5t53.5 83.5 t20.5 100.5q0 81 -51 126.5t-135 45.5q-32 0 -61 -8t-51.5 -20t-43 -33.5t-35 -40.5t-29 -50t-23 -52t-19 -57t-15.5 -55.5t-14 -54.5l-371 -1477l-122 -61h-19z" />
<glyph unicode="&#xe0;" horiz-adv-x="1024" d="M27 139q0 118 67 261.5t165 260t216.5 196t214.5 79.5q75 0 129 -68l29 66q0 1 3.5 6.5t5 8t5 7.5t6 7.5t7 5.5t9 4.5t9.5 1.5h43q18 0 18 -10q0 -1 -4 -17l-202 -727q-9 -27 -9 -51q0 -29 25 -29q26 0 53 20.5t58 56.5t40 44l33 -26q-17 -18 -51 -59t-62.5 -72.5 t-64.5 -65t-74 -52t-75 -18.5q-27 0 -48.5 15t-21.5 43q0 38 35 149l57 180l-2 6q-44 -67 -94 -129.5t-111.5 -125t-128.5 -100.5t-125 -38q-36 0 -64 10.5t-44.5 27.5t-27.5 40.5t-15 45.5t-4 46zM178 262q0 -60 25 -100.5t80 -40.5q71 0 154 70.5t147 168t107.5 202.5 t43.5 173q0 39 -31.5 72t-70.5 33q-79 0 -163.5 -62t-147.5 -151t-103.5 -189t-40.5 -176zM408 1395q0 22 19 43.5t42 21.5q26 0 38 -6t30 -27l247 -309h-43q-11 0 -34 17l-240 180q-59 48 -59 80z" />
<glyph unicode="&#xe1;" horiz-adv-x="1024" d="M27 139q0 118 67 261.5t165 260t216.5 196t214.5 79.5q75 0 129 -68l29 66q0 1 3.5 6.5t5 8t5 7.5t6 7.5t7 5.5t9 4.5t9.5 1.5h43q18 0 18 -10q0 -1 -4 -17l-202 -727q-9 -27 -9 -51q0 -29 25 -29q26 0 53 20.5t58 56.5t40 44l33 -26q-17 -18 -51 -59t-62.5 -72.5 t-64.5 -65t-74 -52t-75 -18.5q-27 0 -48.5 15t-21.5 43q0 38 35 149l57 180l-2 6q-44 -67 -94 -129.5t-111.5 -125t-128.5 -100.5t-125 -38q-36 0 -64 10.5t-44.5 27.5t-27.5 40.5t-15 45.5t-4 46zM178 262q0 -60 25 -100.5t80 -40.5q71 0 154 70.5t147 168t107.5 202.5 t43.5 173q0 39 -31.5 72t-70.5 33q-79 0 -163.5 -62t-147.5 -151t-103.5 -189t-40.5 -176zM530 1118l312 303q6 4 17 13t17 13.5t15.5 8.5t19.5 4q25 0 45.5 -20t20.5 -47q0 -18 -15.5 -36t-25.5 -24.5t-31 -19.5l-235 -154q-59 -41 -86 -41h-54z" />
<glyph unicode="&#xe2;" horiz-adv-x="1024" d="M27 139q0 118 67 261.5t165 260t216.5 196t214.5 79.5q75 0 129 -68l29 66q0 1 3.5 6.5t5 8t5 7.5t6 7.5t7 5.5t9 4.5t9.5 1.5h43q18 0 18 -10q0 -1 -4 -17l-202 -727q-9 -27 -9 -51q0 -29 25 -29q26 0 53 20.5t58 56.5t40 44l33 -26q-17 -18 -51 -59t-62.5 -72.5 t-64.5 -65t-74 -52t-75 -18.5q-27 0 -48.5 15t-21.5 43q0 38 35 149l57 180l-2 6q-44 -67 -94 -129.5t-111.5 -125t-128.5 -100.5t-125 -38q-36 0 -64 10.5t-44.5 27.5t-27.5 40.5t-15 45.5t-4 46zM178 262q0 -60 25 -100.5t80 -40.5q71 0 154 70.5t147 168t107.5 202.5 t43.5 173q0 39 -31.5 72t-70.5 33q-79 0 -163.5 -62t-147.5 -151t-103.5 -189t-40.5 -176zM344 1118l330 342h78l180 -342h-68l-168 219l-276 -219h-76z" />
<glyph unicode="&#xe3;" horiz-adv-x="1024" d="M27 139q0 118 67 261.5t165 260t216.5 196t214.5 79.5q75 0 129 -68l29 66q0 1 3.5 6.5t5 8t5 7.5t6 7.5t7 5.5t9 4.5t9.5 1.5h43q18 0 18 -10q0 -1 -4 -17l-202 -727q-9 -27 -9 -51q0 -29 25 -29q26 0 53 20.5t58 56.5t40 44l33 -26q-17 -18 -51 -59t-62.5 -72.5 t-64.5 -65t-74 -52t-75 -18.5q-27 0 -48.5 15t-21.5 43q0 38 35 149l57 180l-2 6q-44 -67 -94 -129.5t-111.5 -125t-128.5 -100.5t-125 -38q-36 0 -64 10.5t-44.5 27.5t-27.5 40.5t-15 45.5t-4 46zM178 262q0 -60 25 -100.5t80 -40.5q71 0 154 70.5t147 168t107.5 202.5 t43.5 173q0 39 -31.5 72t-70.5 33q-79 0 -163.5 -62t-147.5 -151t-103.5 -189t-40.5 -176zM297 1163q22 85 80 141t141 56q48 0 144 -45t126 -45q45 0 71.5 26t49.5 74h54q-11 -77 -74.5 -141t-140.5 -64q-44 0 -140 45q-10 5 -34.5 17.5t-37 18.5t-30.5 12t-31 6 q-48 0 -73 -23.5t-50 -77.5h-55z" />
<glyph unicode="&#xe4;" horiz-adv-x="1024" d="M27 139q0 118 67 261.5t165 260t216.5 196t214.5 79.5q75 0 129 -68l29 66q0 1 3.5 6.5t5 8t5 7.5t6 7.5t7 5.5t9 4.5t9.5 1.5h43q18 0 18 -10q0 -1 -4 -17l-202 -727q-9 -27 -9 -51q0 -29 25 -29q26 0 53 20.5t58 56.5t40 44l33 -26q-17 -18 -51 -59t-62.5 -72.5 t-64.5 -65t-74 -52t-75 -18.5q-27 0 -48.5 15t-21.5 43q0 38 35 149l57 180l-2 6q-44 -67 -94 -129.5t-111.5 -125t-128.5 -100.5t-125 -38q-36 0 -64 10.5t-44.5 27.5t-27.5 40.5t-15 45.5t-4 46zM178 262q0 -60 25 -100.5t80 -40.5q71 0 154 70.5t147 168t107.5 202.5 t43.5 173q0 39 -31.5 72t-70.5 33q-79 0 -163.5 -62t-147.5 -151t-103.5 -189t-40.5 -176zM358 1249q0 43 29 72t70 29q43 0 72.5 -29t29.5 -72q0 -41 -29.5 -70.5t-72.5 -29.5q-41 0 -70 29.5t-29 70.5zM768 1249q0 43 28.5 72t69.5 29q43 0 73 -29t30 -72q0 -41 -30 -70.5 t-73 -29.5q-41 0 -69.5 29.5t-28.5 70.5z" />
<glyph unicode="&#xe5;" horiz-adv-x="1024" d="M27 139q0 118 67 261.5t165 260t216.5 196t214.5 79.5q75 0 129 -68l29 66q0 1 3.5 6.5t5 8t5 7.5t6 7.5t7 5.5t9 4.5t9.5 1.5h43q18 0 18 -10q0 -1 -4 -17l-202 -727q-9 -27 -9 -51q0 -29 25 -29q26 0 53 20.5t58 56.5t40 44l33 -26q-17 -18 -51 -59t-62.5 -72.5 t-64.5 -65t-74 -52t-75 -18.5q-27 0 -48.5 15t-21.5 43q0 38 35 149l57 180l-2 6q-44 -67 -94 -129.5t-111.5 -125t-128.5 -100.5t-125 -38q-36 0 -64 10.5t-44.5 27.5t-27.5 40.5t-15 45.5t-4 46zM178 262q0 -60 25 -100.5t80 -40.5q71 0 154 70.5t147 168t107.5 202.5 t43.5 173q0 39 -31.5 72t-70.5 33q-79 0 -163.5 -62t-147.5 -151t-103.5 -189t-40.5 -176zM541 1278q0 83 58.5 142t141.5 59t142 -59t59 -142t-59 -142t-142 -59t-141.5 59t-58.5 142zM606 1278q0 -56 40 -95.5t95 -39.5q56 0 96 40t40 95t-40 95t-96 40q-55 0 -95 -39.5 t-40 -95.5z" />
<glyph unicode="&#xe6;" horiz-adv-x="1478" d="M45 158q0 107 60.5 239t152.5 244t212 188t228 76q46 0 77.5 -11t66.5 -40l63 131l90 16l31 -10l-78 -166h4q165 111 297 111q78 0 129.5 -31t51.5 -102q0 -80 -47 -147.5t-117.5 -111.5t-161 -77.5t-169.5 -49.5t-151 -22q-16 -86 -16 -123q0 -192 174 -192 q93 0 177.5 45.5t187.5 126.5l30 -31q-233 -252 -475 -252q-119 0 -182.5 63t-63.5 183q0 16 5 88h-5q-32 -47 -79 -100t-106.5 -107.5t-126.5 -90.5t-122 -36q-75 -4 -106 48.5t-31 140.5zM197 231q0 -52 20.5 -81t73.5 -29q80 0 188 107.5t184 250t76 238.5 q0 104 -108 104q-83 0 -165.5 -64t-139.5 -156.5t-93 -193.5t-36 -176zM799 449q65 0 145 24.5t152 66t121 105.5t49 135q0 42 -25 66t-65 24q-53 0 -106 -28t-96 -73.5t-79 -101.5t-60.5 -112t-35.5 -106z" />
<glyph unicode="&#xe7;" horiz-adv-x="909" d="M98 248q0 201 131.5 371t321.5 247q160 70 229 70q37 0 69 -22.5t32 -59.5q0 -45 -28 -75.5t-67 -30.5q-37 0 -87.5 32.5t-80.5 32.5q-73 0 -142 -61t-114 -148t-72.5 -178.5t-27.5 -157.5q0 -88 52 -138t143 -50q161 0 366 219l29 -37q-67 -76 -126 -129.5t-141 -99 t-165 -58.5l-72 -106l4 -4q17 10 64 10q62 0 101.5 -35t39.5 -100q0 -48 -21 -83.5t-57 -55t-76.5 -28.5t-85.5 -9q-93 0 -184 43l37 53q78 -31 115 -31q53 0 95 23t42 72q0 39 -27 62.5t-65 23.5q-42 0 -80 -19l-14 21l106 157q-116 1 -180 78.5t-64 200.5z" />
<glyph unicode="&#xe8;" horiz-adv-x="909" d="M74 246q0 120 51 245.5t132 223t190 159.5t217 62q37 0 70.5 -7t63.5 -22.5t48 -45.5t18 -70q0 -80 -43 -146t-108 -108.5t-150.5 -73.5t-160.5 -46t-148 -22q-16 -71 -16 -157q0 -74 47 -116t121 -42q159 0 356 190l29 -34q-113 -126 -226 -196.5t-239 -70.5 q-68 0 -118.5 23.5t-78.5 64t-41.5 88t-13.5 101.5zM264 449q75 5 148 26.5t139.5 60t107.5 102.5t41 144q0 40 -22.5 64t-61.5 24q-56 0 -116.5 -46.5t-107 -114t-81 -137.5t-47.5 -123zM350 1395q0 22 19.5 43.5t42.5 21.5q26 0 37.5 -6t29.5 -27l248 -309h-43 q-12 0 -35 17l-239 180q-60 49 -60 80z" />
<glyph unicode="&#xe9;" horiz-adv-x="909" d="M74 246q0 120 51 245.5t132 223t190 159.5t217 62q37 0 70.5 -7t63.5 -22.5t48 -45.5t18 -70q0 -80 -43 -146t-108 -108.5t-150.5 -73.5t-160.5 -46t-148 -22q-16 -71 -16 -157q0 -74 47 -116t121 -42q159 0 356 190l29 -34q-113 -126 -226 -196.5t-239 -70.5 q-68 0 -118.5 23.5t-78.5 64t-41.5 88t-13.5 101.5zM264 449q75 5 148 26.5t139.5 60t107.5 102.5t41 144q0 40 -22.5 64t-61.5 24q-56 0 -116.5 -46.5t-107 -114t-81 -137.5t-47.5 -123zM473 1118l311 303q6 4 17.5 13t17.5 13.5t15.5 8.5t19.5 4q25 0 45.5 -20t20.5 -47 q0 -18 -15.5 -36t-25.5 -24.5t-31 -19.5l-236 -154q-59 -41 -86 -41h-53z" />
<glyph unicode="&#xea;" horiz-adv-x="909" d="M74 246q0 120 51 245.5t132 223t190 159.5t217 62q37 0 70.5 -7t63.5 -22.5t48 -45.5t18 -70q0 -80 -43 -146t-108 -108.5t-150.5 -73.5t-160.5 -46t-148 -22q-16 -71 -16 -157q0 -74 47 -116t121 -42q159 0 356 190l29 -34q-113 -126 -226 -196.5t-239 -70.5 q-68 0 -118.5 23.5t-78.5 64t-41.5 88t-13.5 101.5zM264 449q75 5 148 26.5t139.5 60t107.5 102.5t41 144q0 40 -22.5 64t-61.5 24q-56 0 -116.5 -46.5t-107 -114t-81 -137.5t-47.5 -123zM287 1118l329 342h78l180 -342h-67l-168 219l-277 -219h-75z" />
<glyph unicode="&#xeb;" horiz-adv-x="909" d="M74 246q0 120 51 245.5t132 223t190 159.5t217 62q37 0 70.5 -7t63.5 -22.5t48 -45.5t18 -70q0 -80 -43 -146t-108 -108.5t-150.5 -73.5t-160.5 -46t-148 -22q-16 -71 -16 -157q0 -74 47 -116t121 -42q159 0 356 190l29 -34q-113 -126 -226 -196.5t-239 -70.5 q-68 0 -118.5 23.5t-78.5 64t-41.5 88t-13.5 101.5zM264 449q75 5 148 26.5t139.5 60t107.5 102.5t41 144q0 40 -22.5 64t-61.5 24q-56 0 -116.5 -46.5t-107 -114t-81 -137.5t-47.5 -123zM301 1249q0 43 28.5 72t69.5 29q43 0 73 -29t30 -72q0 -41 -30 -70.5t-73 -29.5 q-41 0 -69.5 29.5t-28.5 70.5zM711 1249q0 43 28.5 72t69.5 29q43 0 72.5 -29t29.5 -72q0 -41 -29.5 -70.5t-72.5 -29.5q-41 0 -69.5 29.5t-28.5 70.5z" />
<glyph unicode="&#xec;" horiz-adv-x="569" d="M82 51q0 37 22 101l177 520q18 52 18 76t-25 24q-46 0 -145 -131l-29 29q35 54 84 110t117.5 106t122.5 50q63 0 63 -51q0 -28 -28 -115l-168 -520q-21 -68 -21 -86q0 -31 27 -31q19 0 74 51t82 82l32 -26q-199 -271 -325 -271q-78 0 -78 82zM180 1395q0 22 19.5 43.5 t42.5 21.5q26 0 37.5 -6t29.5 -27l248 -309h-43q-12 0 -35 17l-239 180q-60 49 -60 80z" />
<glyph unicode="&#xed;" horiz-adv-x="569" d="M82 51q0 37 22 101l177 520q18 52 18 76t-25 24q-46 0 -145 -131l-29 29q35 54 84 110t117.5 106t122.5 50q63 0 63 -51q0 -28 -28 -115l-168 -520q-21 -68 -21 -86q0 -31 27 -31q19 0 74 51t82 82l32 -26q-199 -271 -325 -271q-78 0 -78 82zM303 1118l311 303 q6 4 17.5 13t17.5 13.5t15.5 8.5t19.5 4q25 0 45.5 -20t20.5 -47q0 -18 -15.5 -36t-25.5 -24.5t-31 -19.5l-236 -154q-59 -41 -86 -41h-53z" />
<glyph unicode="&#xee;" horiz-adv-x="569" d="M82 51q0 37 22 101l177 520q18 52 18 76t-25 24q-46 0 -145 -131l-29 29q35 54 84 110t117.5 106t122.5 50q63 0 63 -51q0 -28 -28 -115l-168 -520q-21 -68 -21 -86q0 -31 27 -31q19 0 74 51t82 82l32 -26q-199 -271 -325 -271q-78 0 -78 82zM117 1118l329 342h78 l181 -342h-68l-168 219l-276 -219h-76z" />
<glyph unicode="&#xef;" horiz-adv-x="569" d="M82 51q0 37 22 101l177 520q18 52 18 76t-25 24q-46 0 -145 -131l-29 29q35 54 84 110t117.5 106t122.5 50q63 0 63 -51q0 -28 -28 -115l-168 -520q-21 -68 -21 -86q0 -31 27 -31q19 0 74 51t82 82l32 -26q-199 -271 -325 -271q-78 0 -78 82zM131 1249q0 43 28.5 72 t69.5 29q43 0 73 -29t30 -72q0 -41 -30 -70.5t-73 -29.5q-41 0 -69.5 29.5t-28.5 70.5zM541 1249q0 43 28.5 72t69.5 29q43 0 72.5 -29t29.5 -72q0 -41 -29.5 -70.5t-72.5 -29.5q-41 0 -69.5 29.5t-28.5 70.5z" />
<glyph unicode="&#xf0;" d="M98 381q0 109 44.5 211t118.5 177.5t175.5 121t210.5 45.5q133 0 217 -84h4q-20 115 -80 224t-131 184l-297 -113l-41 70l271 104q-140 144 -248 199l45 45q99 -39 171.5 -82.5t152.5 -114.5l270 109l39 -68l-246 -102q266 -272 266 -639q0 -165 -42.5 -299 t-116.5 -220.5t-171 -133t-208 -46.5q-184 0 -294 112.5t-110 299.5zM262 311q0 -61 12.5 -110.5t39 -90.5t74 -64t112.5 -23q64 0 119.5 27.5t95.5 74t72 105t51 123t29 126t10 115.5q0 45 -7 85.5t-24 78.5t-43 65t-66.5 43.5t-91.5 16.5q-66 0 -123 -26.5t-98 -72 t-73 -103t-51 -122.5t-28.5 -127.5t-9.5 -120.5z" />
<glyph unicode="&#xf1;" d="M61 678q210 258 357 258q35 0 52 -19.5t17 -50.5q0 -29 -22 -98l-107 -309h4q32 46 81 104t116 125t135 121.5t141 91t130 35.5q82 0 82 -84q0 -39 -21 -100l-164 -451q-31 -84 -31 -106q0 -43 37 -43t92 49t84 94l35 -27l-73 -90q-146 -178 -285 -178q-38 0 -58 19.5 t-20 48.5q0 53 29 127l159 436q27 81 27 102q0 19 -14 29t-33 10q-39 0 -80 -19t-81.5 -54t-66.5 -62t-61 -66q-3 -4 -5.5 -6.5t-4.5 -5.5q-175 -187 -256 -418l-41 -116q-4 -11 -28.5 -17t-47.5 -6q-16 0 -37 8.5t-28 18.5l200 604q25 81 25 102q0 37 -33 37 q-49 0 -119 -70l-55 -61zM354 1163q22 85 80 141t141 56q48 0 144 -45t127 -45q45 0 71.5 26t49.5 74h53q-11 -77 -74.5 -141t-140.5 -64q-43 0 -139 45q-9 4 -34.5 17t-38 19t-30.5 12t-31 6q-48 0 -72 -23.5t-50 -77.5h-56z" />
<glyph unicode="&#xf2;" d="M98 381q0 109 44.5 211t118.5 177.5t175.5 121t210.5 45.5q176 0 284.5 -118t108.5 -298q0 -107 -43.5 -208t-115.5 -176t-172 -121t-207 -46q-184 0 -294 112.5t-110 299.5zM262 311q0 -61 12.5 -110.5t39 -90.5t74 -64t112.5 -23q64 0 119.5 27.5t95.5 74t72 105 t51 123t29 126t10 115.5q0 45 -7 85.5t-24 78.5t-43 65t-66.5 43.5t-91.5 16.5q-66 0 -123 -26.5t-98 -72t-73 -103t-51 -122.5t-28.5 -127.5t-9.5 -120.5zM465 1395q0 22 19 43.5t42 21.5q26 0 38 -6t30 -27l248 -309h-43q-12 0 -35 17l-240 180q-59 48 -59 80z" />
<glyph unicode="&#xf3;" d="M98 381q0 109 44.5 211t118.5 177.5t175.5 121t210.5 45.5q176 0 284.5 -118t108.5 -298q0 -107 -43.5 -208t-115.5 -176t-172 -121t-207 -46q-184 0 -294 112.5t-110 299.5zM262 311q0 -61 12.5 -110.5t39 -90.5t74 -64t112.5 -23q64 0 119.5 27.5t95.5 74t72 105 t51 123t29 126t10 115.5q0 45 -7 85.5t-24 78.5t-43 65t-66.5 43.5t-91.5 16.5q-66 0 -123 -26.5t-98 -72t-73 -103t-51 -122.5t-28.5 -127.5t-9.5 -120.5zM588 1118l311 303q6 4 17.5 13t17.5 13.5t15.5 8.5t19.5 4q25 0 45 -20t20 -47q0 -18 -15 -36t-25.5 -25t-30.5 -19 l-236 -154q-59 -41 -86 -41h-53z" />
<glyph unicode="&#xf4;" d="M98 381q0 109 44.5 211t118.5 177.5t175.5 121t210.5 45.5q176 0 284.5 -118t108.5 -298q0 -107 -43.5 -208t-115.5 -176t-172 -121t-207 -46q-184 0 -294 112.5t-110 299.5zM262 311q0 -61 12.5 -110.5t39 -90.5t74 -64t112.5 -23q64 0 119.5 27.5t95.5 74t72 105 t51 123t29 126t10 115.5q0 45 -7 85.5t-24 78.5t-43 65t-66.5 43.5t-91.5 16.5q-66 0 -123 -26.5t-98 -72t-73 -103t-51 -122.5t-28.5 -127.5t-9.5 -120.5zM401 1118l330 342h78l180 -342h-67l-168 219l-277 -219h-76z" />
<glyph unicode="&#xf5;" d="M98 381q0 109 44.5 211t118.5 177.5t175.5 121t210.5 45.5q176 0 284.5 -118t108.5 -298q0 -107 -43.5 -208t-115.5 -176t-172 -121t-207 -46q-184 0 -294 112.5t-110 299.5zM262 311q0 -61 12.5 -110.5t39 -90.5t74 -64t112.5 -23q64 0 119.5 27.5t95.5 74t72 105 t51 123t29 126t10 115.5q0 45 -7 85.5t-24 78.5t-43 65t-66.5 43.5t-91.5 16.5q-66 0 -123 -26.5t-98 -72t-73 -103t-51 -122.5t-28.5 -127.5t-9.5 -120.5zM354 1163q22 85 80 141t141 56q48 0 144 -45t127 -45q45 0 71.5 26t49.5 74h53q-11 -77 -74.5 -141t-140.5 -64 q-43 0 -139 45q-9 4 -34.5 17t-38 19t-30.5 12t-31 6q-48 0 -72 -23.5t-50 -77.5h-56z" />
<glyph unicode="&#xf6;" d="M98 381q0 109 44.5 211t118.5 177.5t175.5 121t210.5 45.5q176 0 284.5 -118t108.5 -298q0 -107 -43.5 -208t-115.5 -176t-172 -121t-207 -46q-184 0 -294 112.5t-110 299.5zM262 311q0 -61 12.5 -110.5t39 -90.5t74 -64t112.5 -23q64 0 119.5 27.5t95.5 74t72 105 t51 123t29 126t10 115.5q0 45 -7 85.5t-24 78.5t-43 65t-66.5 43.5t-91.5 16.5q-66 0 -123 -26.5t-98 -72t-73 -103t-51 -122.5t-28.5 -127.5t-9.5 -120.5zM416 1249q0 43 28.5 72t69.5 29q43 0 72.5 -29t29.5 -72q0 -41 -29.5 -70.5t-72.5 -29.5q-41 0 -69.5 29.5 t-28.5 70.5zM825 1249q0 43 29 72t70 29q43 0 72.5 -29t29.5 -72q0 -41 -29.5 -70.5t-72.5 -29.5q-41 0 -70 29.5t-29 70.5z" />
<glyph unicode="&#xf7;" d="M117 385v135h905v-135h-905zM434 104q0 57 40 96.5t97 39.5q54 0 94 -40.5t40 -95.5q0 -53 -40 -94t-94 -41q-57 0 -97 39.5t-40 95.5zM434 801q0 57 39.5 96t95.5 39t96 -40t40 -95q0 -53 -40.5 -94t-95.5 -41t-95 40t-40 95z" />
<glyph unicode="&#xf8;" d="M57 -16l127 127q-86 106 -86 270q0 109 44.5 211t118.5 177.5t175.5 121t210.5 45.5q155 0 264 -98l129 131l41 -37l-135 -133q94 -114 94 -279q0 -107 -43.5 -208t-115.5 -176t-172 -121t-207 -46q-170 0 -277 99l-125 -125zM262 311q0 -57 12 -110l566 565 q-53 117 -195 117q-66 0 -123 -26.5t-98 -72t-73 -103t-51 -122.5t-28.5 -127.5t-9.5 -120.5zM297 139q56 -116 203 -116q64 0 119.5 27.5t95.5 74t72 105t51 123t29 126t10 115.5q0 64 -15 119z" />
<glyph unicode="&#xf9;" d="M51 674l70 71q42 42 69 67t68.5 58t79.5 49.5t72 16.5q31 0 49 -17.5t18 -48.5q0 -36 -26 -106l-185 -551q-4 -20 -4 -29q0 -20 35 -20q49 0 141.5 85t183 200.5t168 235t103.5 187.5q12 32 27 48t43 16q12 0 26.5 -7.5t23 -13.5t24.5 -21t18 -17l-224 -668 q-6 -15 -6 -29q0 -28 31 -28q24 0 56 22t74 61t48 44l29 -29q-3 -3 -32.5 -36t-39 -43t-39 -39.5t-45.5 -42t-44.5 -34t-49.5 -30.5t-48 -17t-52 -8q-36 0 -56 19t-20 53q0 39 39 151l123 363h-4q-5 -6 -36.5 -47t-49.5 -64t-57 -71.5t-66.5 -80t-69.5 -78t-75 -77 t-73.5 -65.5t-74 -55.5t-69 -34t-64.5 -13.5q-34 0 -60 24t-26 56q0 23 20 88l178 528l8 28q1 9 1 17q0 31 -27 31q-21 0 -47.5 -17t-44 -33.5t-45 -46.5t-33.5 -36zM465 1395q0 22 19 43.5t42 21.5q26 0 38 -6t30 -27l248 -309h-43q-12 0 -35 17l-240 180q-59 48 -59 80z " />
<glyph unicode="&#xfa;" d="M51 674l70 71q42 42 69 67t68.5 58t79.5 49.5t72 16.5q31 0 49 -17.5t18 -48.5q0 -36 -26 -106l-185 -551q-4 -20 -4 -29q0 -20 35 -20q49 0 141.5 85t183 200.5t168 235t103.5 187.5q12 32 27 48t43 16q12 0 26.5 -7.5t23 -13.5t24.5 -21t18 -17l-224 -668 q-6 -15 -6 -29q0 -28 31 -28q24 0 56 22t74 61t48 44l29 -29q-3 -3 -32.5 -36t-39 -43t-39 -39.5t-45.5 -42t-44.5 -34t-49.5 -30.5t-48 -17t-52 -8q-36 0 -56 19t-20 53q0 39 39 151l123 363h-4q-5 -6 -36.5 -47t-49.5 -64t-57 -71.5t-66.5 -80t-69.5 -78t-75 -77 t-73.5 -65.5t-74 -55.5t-69 -34t-64.5 -13.5q-34 0 -60 24t-26 56q0 23 20 88l178 528l8 28q1 9 1 17q0 31 -27 31q-21 0 -47.5 -17t-44 -33.5t-45 -46.5t-33.5 -36zM588 1118l311 303q6 4 17.5 13t17.5 13.5t15.5 8.5t19.5 4q25 0 45 -20t20 -47q0 -18 -15 -36t-25.5 -25 t-30.5 -19l-236 -154q-59 -41 -86 -41h-53z" />
<glyph unicode="&#xfb;" d="M51 674l70 71q42 42 69 67t68.5 58t79.5 49.5t72 16.5q31 0 49 -17.5t18 -48.5q0 -36 -26 -106l-185 -551q-4 -20 -4 -29q0 -20 35 -20q49 0 141.5 85t183 200.5t168 235t103.5 187.5q12 32 27 48t43 16q12 0 26.5 -7.5t23 -13.5t24.5 -21t18 -17l-224 -668 q-6 -15 -6 -29q0 -28 31 -28q24 0 56 22t74 61t48 44l29 -29q-3 -3 -32.5 -36t-39 -43t-39 -39.5t-45.5 -42t-44.5 -34t-49.5 -30.5t-48 -17t-52 -8q-36 0 -56 19t-20 53q0 39 39 151l123 363h-4q-5 -6 -36.5 -47t-49.5 -64t-57 -71.5t-66.5 -80t-69.5 -78t-75 -77 t-73.5 -65.5t-74 -55.5t-69 -34t-64.5 -13.5q-34 0 -60 24t-26 56q0 23 20 88l178 528l8 28q1 9 1 17q0 31 -27 31q-21 0 -47.5 -17t-44 -33.5t-45 -46.5t-33.5 -36zM401 1118l330 342h78l180 -342h-67l-168 219l-277 -219h-76z" />
<glyph unicode="&#xfc;" d="M51 674l70 71q42 42 69 67t68.5 58t79.5 49.5t72 16.5q31 0 49 -17.5t18 -48.5q0 -36 -26 -106l-185 -551q-4 -20 -4 -29q0 -20 35 -20q49 0 141.5 85t183 200.5t168 235t103.5 187.5q12 32 27 48t43 16q12 0 26.5 -7.5t23 -13.5t24.5 -21t18 -17l-224 -668 q-6 -15 -6 -29q0 -28 31 -28q24 0 56 22t74 61t48 44l29 -29q-3 -3 -32.5 -36t-39 -43t-39 -39.5t-45.5 -42t-44.5 -34t-49.5 -30.5t-48 -17t-52 -8q-36 0 -56 19t-20 53q0 39 39 151l123 363h-4q-5 -6 -36.5 -47t-49.5 -64t-57 -71.5t-66.5 -80t-69.5 -78t-75 -77 t-73.5 -65.5t-74 -55.5t-69 -34t-64.5 -13.5q-34 0 -60 24t-26 56q0 23 20 88l178 528l8 28q1 9 1 17q0 31 -27 31q-21 0 -47.5 -17t-44 -33.5t-45 -46.5t-33.5 -36zM416 1249q0 43 28.5 72t69.5 29q43 0 72.5 -29t29.5 -72q0 -41 -29.5 -70.5t-72.5 -29.5q-41 0 -69.5 29.5 t-28.5 70.5zM825 1249q0 43 29 72t70 29q43 0 72.5 -29t29.5 -72q0 -41 -29.5 -70.5t-72.5 -29.5q-41 0 -70 29.5t-29 70.5z" />
<glyph unicode="&#xfd;" horiz-adv-x="1024" d="M27 -385q0 36 19 60t54 24q13 0 41 -7t45 -7q89 0 174 98l111 129l-6 106l-19 170q-14 103 -33 195t-48 189t-70 154.5t-88 57.5q-43 0 -70.5 -26.5t-27.5 -67.5q0 -40 14 -78l-19 -14l-49 29q0 54 11.5 105.5t36 99t69.5 76t104 28.5t106.5 -35t77.5 -97t52 -134.5 t35.5 -158.5t22 -158.5l17 -145t15.5 -107.5q8 15 45 79.5t52.5 93t45 89t43 99.5t25.5 90t12 94q0 40 -12 91t-12 77q0 49 25.5 86t70.5 37q41 0 60.5 -32t19.5 -77q0 -79 -53.5 -219.5t-130 -283.5t-155.5 -270t-136 -199q-6 -7 -30 -40t-35.5 -47t-37 -46t-42.5 -48.5 t-43 -42.5t-48 -40.5t-48.5 -29.5t-53 -21.5t-53.5 -6.5q-33 0 -58.5 24.5t-25.5 57.5zM530 1118l312 303q6 4 17 13t17 13.5t15.5 8.5t19.5 4q25 0 45.5 -20t20.5 -47q0 -18 -15.5 -36t-25.5 -24.5t-31 -19.5l-235 -154q-59 -41 -86 -41h-54z" />
<glyph unicode="&#xfe;" d="M-6 -451l311 1244q-170 -60 -244 -99l15 80q83 37 248 92l141 561l-100 58l6 26q61 7 135 19q52 9 145 35l23 -9l-182 -657q104 37 227 37q57 0 109 -13t98.5 -41t74 -79.5t27.5 -120.5q0 -102 -51.5 -227t-132 -232.5t-191 -180.5t-217.5 -73q-87 0 -164 60l-100 -385 l164 -27l-8 -53q-109 0 -181 -10q-37 -3 -141 -21zM326 160q0 -43 33.5 -90t91.5 -47q64 0 129 50t114.5 127t88.5 166.5t60 172.5t21 141q0 190 -211 190q-111 0 -176 -30l-129 -514q-1 -8 -8.5 -42t-10.5 -61.5t-3 -62.5z" />
<glyph unicode="&#xff;" horiz-adv-x="1024" d="M27 -385q0 36 19 60t54 24q13 0 41 -7t45 -7q89 0 174 98l111 129l-6 106l-19 170q-14 103 -33 195t-48 189t-70 154.5t-88 57.5q-43 0 -70.5 -26.5t-27.5 -67.5q0 -40 14 -78l-19 -14l-49 29q0 54 11.5 105.5t36 99t69.5 76t104 28.5t106.5 -35t77.5 -97t52 -134.5 t35.5 -158.5t22 -158.5l17 -145t15.5 -107.5q8 15 45 79.5t52.5 93t45 89t43 99.5t25.5 90t12 94q0 40 -12 91t-12 77q0 49 25.5 86t70.5 37q41 0 60.5 -32t19.5 -77q0 -79 -53.5 -219.5t-130 -283.5t-155.5 -270t-136 -199q-6 -7 -30 -40t-35.5 -47t-37 -46t-42.5 -48.5 t-43 -42.5t-48 -40.5t-48.5 -29.5t-53 -21.5t-53.5 -6.5q-33 0 -58.5 24.5t-25.5 57.5zM358 1249q0 43 29 72t70 29q43 0 72.5 -29t29.5 -72q0 -41 -29.5 -70.5t-72.5 -29.5q-41 0 -70 29.5t-29 70.5zM768 1249q0 43 28.5 72t69.5 29q43 0 73 -29t30 -72q0 -41 -30 -70.5 t-73 -29.5q-41 0 -69.5 29.5t-28.5 70.5z" />
<glyph unicode="&#x152;" horiz-adv-x="2048" d="M123 635q0 191 65 348.5t177.5 260.5t261.5 159.5t319 56.5q42 0 234 -12q10 -1 132 -12t193 -11q83 0 249 2.5t249 2.5l-23 -287h-41v49q0 123 -62 147.5t-323 24.5h-155l-92 -582h258q98 0 137.5 26t66.5 114l23 71h45l-84 -485h-45q4 40 4 94q0 28 -7 45.5t-18.5 28 t-37 15.5t-49.5 6t-70 1h-236l-59 -387q-1 -8 -8 -47.5t-12 -74.5t-5 -48q0 -49 68.5 -62t237.5 -13q48 0 79 1t72 5t67.5 11.5t57.5 21t52 33.5t40.5 49t32.5 67l29 88h53l-96 -342h-420q-105 0 -387 -14q-257 -17 -310 -17q-205 0 -357 88.5t-229 238t-77 339.5zM324 637 q0 -92 17.5 -179t56.5 -166.5t95 -138.5t138.5 -94.5t181.5 -35.5q68 0 113 19t72 62t40.5 92t24.5 130l125 841q10 68 10 115q1 32 -18 56t-46 37t-65 20.5t-67.5 9.5t-61.5 2q-120 0 -222 -44.5t-173.5 -119.5t-122 -174t-74.5 -208.5t-24 -223.5z" />
<glyph unicode="&#x153;" horiz-adv-x="1593" d="M82 344q0 147 74 283.5t203.5 222.5t277.5 86q110 0 187 -49t126 -152q188 201 393 201q88 0 148.5 -38.5t60.5 -121.5q0 -79 -45.5 -143.5t-112.5 -105t-155.5 -70t-161.5 -43t-143 -19.5q-6 -81 -6 -98q0 -97 40 -157t132 -60q65 0 135 28t116 59.5t113 84.5l31 -31 q-233 -252 -483 -252q-73 0 -130 46t-87 122q-92 -90 -169 -129t-192 -39q-165 0 -258.5 104t-93.5 271zM246 293q0 -52 9.5 -97t31 -85.5t62 -64t95.5 -23.5q76 1 140.5 45t106.5 112t72 152t43 162t13 145q0 104 -46 167.5t-146 63.5q-87 0 -162.5 -61.5t-121 -152.5 t-71.5 -187.5t-26 -175.5zM946 449q57 4 118 19t121.5 43.5t108 67t77.5 93.5t30 119q0 38 -26 58.5t-66 20.5q-56 0 -109.5 -27.5t-95 -72t-75 -100.5t-54.5 -112.5t-29 -108.5z" />
<glyph unicode="&#x178;" horiz-adv-x="1366" d="M190 1376l9 54q105 -5 252 -5q45 0 134 2.5t134 2.5l-10 -54h-74q-38 0 -61.5 -18.5t-6.5 -57.5l262 -620l373 584q27 41 27 69q0 43 -127 43h-35l8 54q103 -5 248 -5q88 0 152 5l-11 -54q-65 7 -137 -96l-20 -31l-451 -661l-76 -402q-4 -22 -4 -39.5t2 -31t9.5 -23.5 t14 -16.5t20.5 -11t23.5 -6.5t29 -3.5t30.5 -1.5h33h37l-10 -53q-52 0 -158 2t-158 2q-88 0 -264 -4l8 53h45q61 -1 92 11.5t42.5 35.5t21.5 76l78 408l-316 721q-16 35 -56.5 53t-88.5 18h-21zM582 1640q0 43 28.5 72t69.5 29q43 0 72.5 -29t29.5 -72q0 -41 -29.5 -70.5 t-72.5 -29.5q-41 0 -69.5 29.5t-28.5 70.5zM991 1640q0 43 29 72t70 29q43 0 72.5 -29t29.5 -72q0 -41 -29.5 -70.5t-72.5 -29.5q-41 0 -70 29.5t-29 70.5z" />
<glyph unicode="&#x2c6;" horiz-adv-x="569" d="M117 1118l329 342h78l181 -342h-68l-168 219l-276 -219h-76z" />
<glyph unicode="&#x2dc;" horiz-adv-x="569" d="M70 1163q22 85 80 141t141 56q47 0 143 -45t127 -45q45 0 71.5 26t49.5 74h53q-11 -77 -74.5 -141t-140.5 -64q-43 0 -139 45q-10 5 -34.5 17.5t-37 18.5t-30.5 12t-31 6q-48 0 -73 -23.5t-50 -77.5h-55z" />
<glyph unicode="&#x2000;" horiz-adv-x="949" />
<glyph unicode="&#x2001;" horiz-adv-x="1898" />
<glyph unicode="&#x2002;" horiz-adv-x="949" />
<glyph unicode="&#x2003;" horiz-adv-x="1898" />
<glyph unicode="&#x2004;" horiz-adv-x="632" />
<glyph unicode="&#x2005;" horiz-adv-x="474" />
<glyph unicode="&#x2006;" horiz-adv-x="316" />
<glyph unicode="&#x2007;" horiz-adv-x="316" />
<glyph unicode="&#x2008;" horiz-adv-x="237" />
<glyph unicode="&#x2009;" horiz-adv-x="379" />
<glyph unicode="&#x200a;" horiz-adv-x="105" />
<glyph unicode="&#x2010;" horiz-adv-x="681" d="M80 422l37 135h483l-33 -135h-487z" />
<glyph unicode="&#x2011;" horiz-adv-x="681" d="M80 422l37 135h483l-33 -135h-487z" />
<glyph unicode="&#x2012;" horiz-adv-x="681" d="M80 422l37 135h483l-33 -135h-487z" />
<glyph unicode="&#x2013;" horiz-adv-x="1024" d="M-23 432l46 135h1024l-46 -135h-1024z" />
<glyph unicode="&#x2014;" horiz-adv-x="2048" d="M-23 432l46 135h2048l-46 -135h-2048z" />
<glyph unicode="&#x2018;" horiz-adv-x="569" d="M240 1133q0 67 32.5 125t84.5 95.5t116.5 58t128.5 18.5l23 -41q-37 2 -81 -7.5t-86 -28t-70 -52.5t-28 -76q0 -33 14 -43t48 -19.5t61 -32.5q9 -6 16 -23t7 -28q0 -58 -35 -92.5t-94 -34.5q-65 0 -101 54.5t-36 126.5z" />
<glyph unicode="&#x2019;" horiz-adv-x="569" d="M166 993q37 -2 81 7.5t86 28t69.5 52.5t27.5 76q0 33 -14 42.5t-48 19t-61 32.5q-8 6 -15 23t-7 29q0 58 35 92.5t94 34.5q65 0 101 -54.5t36 -126.5q0 -67 -33 -125t-85 -95.5t-116.5 -58t-128.5 -18.5z" />
<glyph unicode="&#x201a;" horiz-adv-x="569" d="M92 -213q37 -2 81 7.5t86 28t69.5 52.5t27.5 76q0 33 -14 42.5t-48 19t-61 32.5q-8 6 -15 22.5t-7 28.5q0 58 35 92.5t94 34.5q65 0 101 -54t36 -126q0 -67 -32.5 -125t-84.5 -95.5t-116.5 -58t-128.5 -18.5z" />
<glyph unicode="&#x201c;" d="M313 1133q0 67 33 125t85 95.5t116.5 58t128.5 18.5l22 -41q-37 2 -81 -7.5t-86 -28t-69.5 -52.5t-27.5 -76q0 -33 14 -43t48 -19.5t61 -32.5q9 -6 16 -23t7 -28q0 -58 -35 -92.5t-94 -34.5q-65 0 -101.5 54.5t-36.5 126.5zM717 1133q0 67 32.5 125t84.5 95.5t116.5 58 t128.5 18.5l23 -41q-37 2 -81 -7.5t-86 -28t-69.5 -52.5t-27.5 -76q0 -33 14 -43t48 -19.5t61 -32.5q8 -6 15 -23t7 -28q0 -58 -35 -92.5t-94 -34.5q-65 0 -101 54.5t-36 126.5z" />
<glyph unicode="&#x201d;" d="M258 993q37 -2 81 7.5t86 28t69.5 52.5t27.5 76q0 33 -14 42.5t-48 19t-61 32.5q-8 6 -15 23t-7 29q0 58 35 92.5t94 34.5q65 0 101 -54.5t36 -126.5q0 -67 -32.5 -125t-84.5 -95.5t-116.5 -58t-128.5 -18.5zM662 993q37 -2 81 7.5t86 28t69.5 52.5t27.5 76 q0 33 -14 42.5t-48 19t-61 32.5q-9 6 -16 23.5t-7 28.5q0 58 35 92.5t94 34.5q65 0 101.5 -54.5t36.5 -126.5q0 -67 -33 -125t-85 -95.5t-116.5 -58t-128.5 -18.5z" />
<glyph unicode="&#x201e;" d="M123 -213q37 -2 81 7.5t86 28t69.5 52.5t27.5 76q0 33 -14 42.5t-48 19t-61 32.5q-8 6 -15 22.5t-7 28.5q0 58 35 92.5t94 34.5q65 0 101 -54t36 -126q0 -67 -33 -125t-85 -95.5t-116.5 -58t-128.5 -18.5zM526 -213q37 -2 81 7.5t86 28t70 52.5t28 76q0 33 -14 42.5 t-48 19t-61 32.5q-9 6 -16 23t-7 28q0 58 35 92.5t94 34.5q65 0 101 -54t36 -126q0 -67 -32.5 -125t-84.5 -95.5t-116.5 -58t-128.5 -18.5z" />
<glyph unicode="&#x2022;" horiz-adv-x="1024" d="M174 715q0 149 104.5 253.5t253.5 104.5t254 -104.5t105 -253.5t-105 -254t-254 -105t-253.5 105t-104.5 254z" />
<glyph unicode="&#x2026;" horiz-adv-x="2048" d="M168 102q0 54 40.5 96t94.5 42t94.5 -41.5t40.5 -96.5t-39.5 -94t-95.5 -39q-55 0 -95 39t-40 94zM850 102q0 54 40.5 96t94.5 42t94.5 -41.5t40.5 -96.5t-39.5 -94t-95.5 -39q-55 0 -95 39t-40 94zM1532 102q0 54 40.5 96t94.5 42t94.5 -41.5t40.5 -96.5t-39.5 -94 t-95.5 -39q-55 0 -95 39t-40 94z" />
<glyph unicode="&#x202f;" horiz-adv-x="379" />
<glyph unicode="&#x2039;" horiz-adv-x="569" d="M102 500l435 362l30 -28l-288 -334l170 -342l-35 -21z" />
<glyph unicode="&#x203a;" horiz-adv-x="569" d="M29 166l288 334l-170 342l35 20l312 -362l-435 -363z" />
<glyph unicode="&#x205f;" horiz-adv-x="474" />
<glyph unicode="&#x20ac;" d="M33 516l28 84h113v18q0 62 10 140h-125l27 84h115q29 123 86.5 233t137.5 196.5t188 137.5t227 51q80 0 148 -20.5t109.5 -41t59.5 -20.5q29 0 66 33h22l-65 -354h-43q6 27 6 53q0 130 -85.5 205.5t-207.5 75.5q-81 0 -151.5 -31.5t-122.5 -83.5t-93.5 -123.5 t-67.5 -148.5t-42 -162h643l-29 -84h-629q-8 -65 -8 -144v-14h584l-27 -84h-553q11 -91 39.5 -171.5t76.5 -149.5t125 -109.5t173 -40.5q71 0 143 29.5t127 79.5l31 -37q-63 -66 -156.5 -107t-189.5 -41q-120 0 -219 44.5t-165 121t-106 173.5t-53 208h-147z" />
<glyph unicode="&#x2122;" horiz-adv-x="2027" d="M127 1249v181h704v-181h-40q-29 140 -136 140h-100v-666q0 -48 15 -59.5t85 -20.5v-41h-352v41q70 9 85 20.5t15 59.5v666h-98q-108 0 -137 -140h-41zM922 1386v44h247l316 -633l327 633h211v-44q-61 -3 -84.5 -29t-23.5 -81v-553q0 -48 15 -59.5t85 -20.5v-41h-352v41 q70 9 85 20.5t15 59.5v506h-4l-311 -627h-23l-305 623h-4v-449q0 -70 21 -98t88 -35v-41h-269v41q65 7 86 35t21 98v510q-19 44 -58 72t-83 28z" />
<glyph unicode="&#xe000;" horiz-adv-x="931" d="M0 0v932h932v-932h-932z" />
</font>
</defs>
</svg>
